<svg width="560" height="36" viewBox="0 0 560 36" fill="none" xmlns="http://www.w3.org/2000/svg">
<path d="M29.2411 13.315C28.2344 6.04403 22.6413 1.82528 15.3864 1.82528C6.837 1.82528 0.397017 8.05753 0.397017 18.6364C0.397017 29.1992 6.7571 35.4474 15.3864 35.4474C23.1687 35.4474 28.3303 30.4137 29.2411 24.1655L23.2646 24.1335C22.5135 27.9688 19.3814 30.1261 15.4663 30.1261C10.1609 30.1261 6.3576 26.147 6.3576 18.6364C6.3576 11.2536 10.1289 7.14666 15.4822 7.14666C19.4613 7.14666 22.5774 9.39986 23.2646 13.315H29.2411ZM41.4779 35.4954C45.3291 35.4954 47.6302 33.6896 48.6849 31.6282H48.8767V35H54.4378V18.5724C54.4378 12.0845 49.1483 10.1349 44.4662 10.1349C39.3046 10.1349 35.3415 12.4361 34.0631 16.9105L39.4644 17.6776C40.0397 15.9996 41.6697 14.5614 44.4981 14.5614C47.1828 14.5614 48.653 15.9357 48.653 18.3487V18.4446C48.653 20.1065 46.9111 20.1864 42.5805 20.6499C37.8184 21.1612 33.2641 22.5835 33.2641 28.1126C33.2641 32.9386 36.7957 35.4954 41.4779 35.4954ZM42.98 31.2447C40.567 31.2447 38.8412 30.142 38.8412 28.0167C38.8412 25.7955 40.7748 24.8686 43.3635 24.5011C44.8817 24.2933 47.9179 23.9098 48.6689 23.3026V26.195C48.6689 28.9276 46.4637 31.2447 42.98 31.2447ZM60.2545 35H66.0393V20.57C66.0393 17.4538 68.3884 15.2486 71.5684 15.2486C72.5432 15.2486 73.7577 15.4244 74.2531 15.5842V10.2628C73.7258 10.1669 72.8149 10.103 72.1757 10.103C69.3632 10.103 67.0141 11.701 66.1192 14.5455H65.8635V10.4545H60.2545V35ZM87.9521 35.4794C93.6729 35.4794 97.604 32.6829 98.6268 28.4162L93.2255 27.8089C92.4425 29.8864 90.5249 30.973 88.032 30.973C84.2926 30.973 81.8157 28.5121 81.7678 24.3093H98.8665V22.5355C98.8665 13.9222 93.6889 10.1349 87.6484 10.1349C80.6172 10.1349 76.0309 15.2965 76.0309 22.8711C76.0309 30.5735 80.5533 35.4794 87.9521 35.4794ZM81.7837 20.4102C81.9595 17.2781 84.2766 14.6413 87.7283 14.6413C91.0522 14.6413 93.2894 17.0703 93.3214 20.4102H81.7837ZM114.627 35.4794C120.348 35.4794 124.279 32.6829 125.302 28.4162L119.9 27.8089C119.117 29.8864 117.2 30.973 114.707 30.973C110.967 30.973 108.491 28.5121 108.443 24.3093H125.541V22.5355C125.541 13.9222 120.364 10.1349 114.323 10.1349C107.292 10.1349 102.706 15.2965 102.706 22.8711C102.706 30.5735 107.228 35.4794 114.627 35.4794ZM108.459 20.4102C108.634 17.2781 110.951 14.6413 114.403 14.6413C117.727 14.6413 119.964 17.0703 119.996 20.4102H108.459ZM130.435 35H136.22V20.57C136.22 17.4538 138.569 15.2486 141.749 15.2486C142.724 15.2486 143.938 15.4244 144.434 15.5842V10.2628C143.906 10.1669 142.996 10.103 142.356 10.103C139.544 10.103 137.195 11.701 136.3 14.5455H136.044V10.4545H130.435V35ZM167.677 16.9425C166.878 12.7876 163.554 10.1349 157.801 10.1349C151.888 10.1349 147.862 13.0433 147.877 17.5817C147.862 21.1612 150.067 23.5263 154.781 24.5011L158.968 25.38C161.221 25.8754 162.276 26.7862 162.276 28.1765C162.276 29.8544 160.454 31.1168 157.705 31.1168C155.053 31.1168 153.327 29.9663 152.831 27.761L147.19 28.3043C147.909 32.8107 151.697 35.4794 157.721 35.4794C163.858 35.4794 168.188 32.2994 168.204 27.6491C168.188 24.1495 165.935 22.0082 161.301 21.0014L157.114 20.1065C154.621 19.5472 153.63 18.6843 153.646 17.2621C153.63 15.6001 155.468 14.4496 157.881 14.4496C160.55 14.4496 161.956 15.9038 162.403 17.5178L167.677 16.9425ZM184.136 35H189.921V10.4545H184.136V35ZM187.045 6.97088C188.882 6.97088 190.385 5.56463 190.385 3.83878C190.385 2.09695 188.882 0.690695 187.045 0.690695C185.191 0.690695 183.689 2.09695 183.689 3.83878C183.689 5.56463 185.191 6.97088 187.045 6.97088ZM201.655 20.6179C201.655 17.0703 203.796 15.0249 206.848 15.0249C209.836 15.0249 211.626 16.9904 211.626 20.2663V35H217.411V19.3714C217.427 13.4908 214.071 10.1349 209.005 10.1349C205.33 10.1349 202.805 11.8928 201.687 14.6254H201.399V10.4545H195.87V35H201.655V20.6179ZM234.709 2.27273V35H240.398V12.468H240.702L249.747 34.9041H253.997L263.042 12.516H263.346V35H269.035V2.27273H261.78L252.064 25.9872H251.68L241.964 2.27273H234.709ZM286.101 35.4794C291.822 35.4794 295.753 32.6829 296.776 28.4162L291.375 27.8089C290.592 29.8864 288.674 30.973 286.181 30.973C282.442 30.973 279.965 28.5121 279.917 24.3093H297.016V22.5355C297.016 13.9222 291.838 10.1349 285.798 10.1349C278.767 10.1349 274.18 15.2965 274.18 22.8711C274.18 30.5735 278.703 35.4794 286.101 35.4794ZM279.933 20.4102C280.109 17.2781 282.426 14.6413 285.878 14.6413C289.202 14.6413 291.439 17.0703 291.471 20.4102H279.933ZM311.018 35.4315C315.237 35.4315 317.139 32.9226 318.05 31.1328H318.401V35H324.09V2.27273H318.289V14.5135H318.05C317.171 12.7397 315.365 10.1349 311.034 10.1349C305.362 10.1349 300.903 14.5774 300.903 22.7592C300.903 30.8452 305.234 35.4315 311.018 35.4315ZM312.632 30.6854C308.813 30.6854 306.8 27.3295 306.8 22.7273C306.8 18.157 308.781 14.881 312.632 14.881C316.356 14.881 318.401 17.9652 318.401 22.7273C318.401 27.4893 316.324 30.6854 312.632 30.6854ZM330.255 35H336.039V10.4545H330.255V35ZM333.163 6.97088C335.001 6.97088 336.503 5.56463 336.503 3.83878C336.503 2.09695 335.001 0.690695 333.163 0.690695C331.309 0.690695 329.807 2.09695 329.807 3.83878C329.807 5.56463 331.309 6.97088 333.163 6.97088ZM352.695 35.4794C358.863 35.4794 362.794 31.82 363.21 26.6104H357.68C357.185 29.2472 355.283 30.7653 352.743 30.7653C349.131 30.7653 346.798 27.745 346.798 22.7273C346.798 17.7734 349.179 14.8011 352.743 14.8011C355.523 14.8011 357.233 16.5909 357.68 18.956H363.21C362.81 13.6346 358.655 10.1349 352.663 10.1349C345.472 10.1349 340.933 15.3285 340.933 22.8232C340.933 30.2539 345.36 35.4794 352.695 35.4794ZM367.96 35H373.744V10.4545H367.96V35ZM370.868 6.97088C372.706 6.97088 374.208 5.56463 374.208 3.83878C374.208 2.09695 372.706 0.690695 370.868 0.690695C369.014 0.690695 367.512 2.09695 367.512 3.83878C367.512 5.56463 369.014 6.97088 370.868 6.97088ZM385.478 20.6179C385.478 17.0703 387.619 15.0249 390.671 15.0249C393.66 15.0249 395.449 16.9904 395.449 20.2663V35H401.234V19.3714C401.25 13.4908 397.894 10.1349 392.829 10.1349C389.153 10.1349 386.628 11.8928 385.51 14.6254H385.222V10.4545H379.693V35H385.478V20.6179ZM417.981 35.4794C423.702 35.4794 427.633 32.6829 428.656 28.4162L423.255 27.8089C422.472 29.8864 420.554 30.973 418.061 30.973C414.322 30.973 411.845 28.5121 411.797 24.3093H428.896V22.5355C428.896 13.9222 423.718 10.1349 417.678 10.1349C410.646 10.1349 406.06 15.2965 406.06 22.8711C406.06 30.5735 410.583 35.4794 417.981 35.4794ZM411.813 20.4102C411.989 17.2781 414.306 14.6413 417.758 14.6413C421.081 14.6413 423.319 17.0703 423.351 20.4102H411.813ZM445.207 35H451.136V23.9418H457.4C464.959 23.9418 469.018 19.4034 469.018 13.1072C469.018 6.85902 465.007 2.27273 457.48 2.27273H445.207V35ZM451.136 19.0678V7.22656H456.569C461.012 7.22656 462.977 9.62358 462.977 13.1072C462.977 16.5909 461.012 19.0678 456.601 19.0678H451.136ZM480.536 35.4954C484.387 35.4954 486.688 33.6896 487.743 31.6282H487.934V35H493.495V18.5724C493.495 12.0845 488.206 10.1349 483.524 10.1349C478.362 10.1349 474.399 12.4361 473.121 16.9105L478.522 17.6776C479.097 15.9996 480.727 14.5614 483.556 14.5614C486.24 14.5614 487.711 15.9357 487.711 18.3487V18.4446C487.711 20.1065 485.969 20.1864 481.638 20.6499C476.876 21.1612 472.322 22.5835 472.322 28.1126C472.322 32.9386 475.853 35.4954 480.536 35.4954ZM482.038 31.2447C479.625 31.2447 477.899 30.142 477.899 28.0167C477.899 25.7955 479.832 24.8686 482.421 24.5011C483.939 24.2933 486.975 23.9098 487.727 23.3026V26.195C487.727 28.9276 485.521 31.2447 482.038 31.2447ZM505.097 20.6179C505.097 17.0703 507.238 15.0249 510.29 15.0249C513.279 15.0249 515.069 16.9904 515.069 20.2663V35H520.853V19.3714C520.869 13.4908 517.513 10.1349 512.448 10.1349C508.772 10.1349 506.248 11.8928 505.129 14.6254H504.841V10.4545H499.312V35H505.097V20.6179ZM537.6 35.4794C543.321 35.4794 547.252 32.6829 548.275 28.4162L542.874 27.8089C542.091 29.8864 540.173 30.973 537.68 30.973C533.941 30.973 531.464 28.5121 531.416 24.3093H548.515V22.5355C548.515 13.9222 543.337 10.1349 537.297 10.1349C530.266 10.1349 525.679 15.2965 525.679 22.8711C525.679 30.5735 530.202 35.4794 537.6 35.4794ZM531.432 20.4102C531.608 17.2781 533.925 14.6413 537.377 14.6413C540.701 14.6413 542.938 17.0703 542.97 20.4102H531.432ZM559.194 2.27273H553.409V35H559.194V2.27273Z" fill="#3643B5"/>
</svg>
