<svg width="420" height="35" viewBox="0 0 420 35" fill="none" xmlns="http://www.w3.org/2000/svg">
<path d="M23.1527 11.7237H29.1932C28.1864 5.29971 22.6254 0.825283 15.3864 0.825283C6.82102 0.825283 0.397017 7.12145 0.397017 17.6683C0.397017 28.0234 6.53338 34.4474 15.5621 34.4474C23.6641 34.4474 29.4648 29.2379 29.4648 20.8004V16.8693H16.1854V21.5036H23.728C23.6321 26.1697 20.516 29.1261 15.5941 29.1261C10.1129 29.1261 6.3576 25.0192 6.3576 17.6044C6.3576 10.2376 10.1768 6.14666 15.4663 6.14666C19.4134 6.14666 22.098 8.25604 23.1527 11.7237ZM40.7268 1.27273H34.942V34H40.7268V1.27273ZM57.3821 34.4794C64.5732 34.4794 69.1435 29.4137 69.1435 21.8232C69.1435 14.2166 64.5732 9.13494 57.3821 9.13494C50.1911 9.13494 45.6207 14.2166 45.6207 21.8232C45.6207 29.4137 50.1911 34.4794 57.3821 34.4794ZM57.4141 29.8452C53.435 29.8452 51.4854 26.2976 51.4854 21.8072C51.4854 17.3168 53.435 13.7212 57.4141 13.7212C61.3292 13.7212 63.2788 17.3168 63.2788 21.8072C63.2788 26.2976 61.3292 29.8452 57.4141 29.8452ZM74.309 34H79.998V30.1328H80.3335C81.2444 31.9226 83.146 34.4315 87.3648 34.4315C93.1496 34.4315 97.4802 29.8452 97.4802 21.7592C97.4802 13.5774 93.0218 9.13494 87.3488 9.13494C83.0182 9.13494 81.2124 11.7397 80.3335 13.5135H80.0938V1.27273H74.309V34ZM79.982 21.7273C79.982 16.9652 82.0274 13.881 85.7508 13.881C89.602 13.881 91.5835 17.157 91.5835 21.7273C91.5835 26.3295 89.57 29.6854 85.7508 29.6854C82.0594 29.6854 79.982 26.4893 79.982 21.7273ZM109.461 34.4954C113.312 34.4954 115.614 32.6896 116.668 30.6282H116.86V34H122.421V17.5724C122.421 11.0845 117.132 9.13494 112.45 9.13494C107.288 9.13494 103.325 11.4361 102.047 15.9105L107.448 16.6776C108.023 14.9996 109.653 13.5614 112.482 13.5614C115.166 13.5614 116.636 14.9357 116.636 17.3487V17.4446C116.636 19.1065 114.895 19.1864 110.564 19.6499C105.802 20.1612 101.248 21.5835 101.248 27.1126C101.248 31.9386 104.779 34.4954 109.461 34.4954ZM110.963 30.2447C108.55 30.2447 106.825 29.142 106.825 27.0167C106.825 24.7955 108.758 23.8686 111.347 23.5011C112.865 23.2933 115.901 22.9098 116.652 22.3026V25.195C116.652 27.9276 114.447 30.2447 110.963 30.2447ZM134.023 1.27273H128.238V34H134.023V1.27273ZM151.389 34H157.318V20.0973H172.483V34H178.427V1.27273H172.483V15.1275H157.318V1.27273H151.389V34ZM195.486 34.4794C201.207 34.4794 205.138 31.6829 206.161 27.4162L200.76 26.8089C199.977 28.8864 198.059 29.973 195.566 29.973C191.827 29.973 189.35 27.5121 189.302 23.3093H206.401V21.5355C206.401 12.9222 201.223 9.13494 195.183 9.13494C188.151 9.13494 183.565 14.2965 183.565 21.8711C183.565 29.5735 188.087 34.4794 195.486 34.4794ZM189.318 19.4102C189.494 16.2781 191.811 13.6413 195.263 13.6413C198.586 13.6413 200.824 16.0703 200.856 19.4102H189.318ZM218.358 34.4954C222.209 34.4954 224.51 32.6896 225.565 30.6282H225.757V34H231.318V17.5724C231.318 11.0845 226.028 9.13494 221.346 9.13494C216.184 9.13494 212.221 11.4361 210.943 15.9105L216.344 16.6776C216.92 14.9996 218.55 13.5614 221.378 13.5614C224.063 13.5614 225.533 14.9357 225.533 17.3487V17.4446C225.533 19.1065 223.791 19.1864 219.46 19.6499C214.698 20.1612 210.144 21.5835 210.144 27.1126C210.144 31.9386 213.676 34.4954 218.358 34.4954ZM219.86 30.2447C217.447 30.2447 215.721 29.142 215.721 27.0167C215.721 24.7955 217.655 23.8686 220.243 23.5011C221.762 23.2933 224.798 22.9098 225.549 22.3026V25.195C225.549 27.9276 223.344 30.2447 219.86 30.2447ZM242.919 1.27273H237.134V34H242.919V1.27273ZM261.125 9.45454H256.283V3.57386H250.498V9.45454H247.014V13.929H250.498V27.576C250.466 32.1942 253.822 34.4634 258.168 34.3356C259.814 34.2876 260.949 33.968 261.572 33.7603L260.597 29.2379C260.278 29.3178 259.622 29.4616 258.903 29.4616C257.449 29.4616 256.283 28.9503 256.283 26.6172V13.929H261.125V9.45454ZM272.275 19.6179C272.275 16.0703 274.48 14.0249 277.58 14.0249C280.616 14.0249 282.406 15.9585 282.406 19.2663V34H288.191V18.3714C288.191 12.4428 284.835 9.13494 279.737 9.13494C275.966 9.13494 273.569 10.8448 272.434 13.6254H272.147V1.27273H266.49V34H272.275V19.6179ZM305.505 34H311.434V22.9418H317.698C325.257 22.9418 329.316 18.4034 329.316 12.1072C329.316 5.85902 325.305 1.27273 317.778 1.27273H305.505V34ZM311.434 18.0678V6.22656H316.867C321.31 6.22656 323.275 8.62358 323.275 12.1072C323.275 15.5909 321.31 18.0678 316.899 18.0678H311.434ZM340.833 34.4954C344.685 34.4954 346.986 32.6896 348.04 30.6282H348.232V34H353.793V17.5724C353.793 11.0845 348.504 9.13494 343.822 9.13494C338.66 9.13494 334.697 11.4361 333.419 15.9105L338.82 16.6776C339.395 14.9996 341.025 13.5614 343.854 13.5614C346.538 13.5614 348.008 14.9357 348.008 17.3487V17.4446C348.008 19.1065 346.267 19.1864 341.936 19.6499C337.174 20.1612 332.62 21.5835 332.62 27.1126C332.62 31.9386 336.151 34.4954 340.833 34.4954ZM342.335 30.2447C339.922 30.2447 338.197 29.142 338.197 27.0167C338.197 24.7955 340.13 23.8686 342.719 23.5011C344.237 23.2933 347.273 22.9098 348.024 22.3026V25.195C348.024 27.9276 345.819 30.2447 342.335 30.2447ZM365.395 19.6179C365.395 16.0703 367.536 14.0249 370.588 14.0249C373.577 14.0249 375.366 15.9904 375.366 19.2663V34H381.151V18.3714C381.167 12.4908 377.811 9.13494 372.746 9.13494C369.07 9.13494 366.545 10.8928 365.427 13.6254H365.139V9.45454H359.61V34H365.395V19.6179ZM397.898 34.4794C403.619 34.4794 407.55 31.6829 408.573 27.4162L403.172 26.8089C402.389 28.8864 400.471 29.973 397.978 29.973C394.239 29.973 391.762 27.5121 391.714 23.3093H408.813V21.5355C408.813 12.9222 403.635 9.13494 397.595 9.13494C390.563 9.13494 385.977 14.2965 385.977 21.8711C385.977 29.5735 390.5 34.4794 397.898 34.4794ZM391.73 19.4102C391.906 16.2781 394.223 13.6413 397.675 13.6413C400.998 13.6413 403.236 16.0703 403.268 19.4102H391.73ZM419.491 1.27273H413.707V34H419.491V1.27273Z" fill="#3643B5"/>
</svg>
