<svg width="450" height="52" viewBox="0 0 450 52" fill="none" xmlns="http://www.w3.org/2000/svg">
<path d="M17.99 14.5C17.72 14.5 17.345 14.545 16.865 14.635C16.415 14.725 15.95 14.83 15.47 14.95C15.02 15.07 14.6 15.19 14.21 15.31C13.85 15.43 13.625 15.52 13.535 15.58C14.315 15.46 15.035 15.325 15.695 15.175C16.355 14.995 17.075 14.905 17.855 14.905C17.705 15.175 17.51 15.385 17.27 15.535C17.03 15.685 16.76 15.805 16.46 15.895C16.19 15.955 15.89 16.015 15.56 16.075C15.23 16.105 14.885 16.165 14.525 16.255L14.21 15.85C13.64 16.06 13.205 16.195 12.905 16.255C12.605 16.285 12.29 16.3 11.96 16.3C11.6 16.3 11.225 16.3 10.835 16.3C10.475 16.27 10.07 16.255 9.62 16.255C9.62 16.405 9.605 16.525 9.575 16.615C10.265 16.615 10.85 16.615 11.33 16.615C11.81 16.585 12.395 16.525 13.085 16.435C12.425 16.555 11.84 16.645 11.33 16.705C10.85 16.765 10.265 16.795 9.575 16.795C9.455 17.485 9.35 18.16 9.26 18.82C9.17 19.48 9.125 20.125 9.125 20.755C9.125 21.115 9.14 21.535 9.17 22.015C9.2 22.495 9.23 22.99 9.26 23.5C9.32 23.98 9.365 24.445 9.395 24.895C9.425 25.315 9.44 25.63 9.44 25.84V28.54C9.59 29.14 10.025 29.59 10.745 29.89C11.465 30.19 12.5 30.34 13.85 30.34H15.29C15.8 30.34 16.145 30.4 16.325 30.52C16.535 30.61 16.64 30.745 16.64 30.925C16.64 31.075 16.52 31.165 16.28 31.195C16.04 31.195 15.8 31.195 15.56 31.195C14.69 31.195 13.775 31.135 12.815 31.015C11.915 30.895 11.03 30.76 10.16 30.61C11.03 30.82 11.945 31.015 12.905 31.195C13.895 31.345 14.855 31.42 15.785 31.42H16.19C16.31 31.42 16.445 31.405 16.595 31.375C16.595 31.525 16.595 31.66 16.595 31.78C16.625 31.9 16.67 32.035 16.73 32.185L17.09 32.095C17.18 32.065 17.285 32.05 17.405 32.05C17.525 32.02 17.615 31.975 17.675 31.915C18.635 32.005 19.115 32.335 19.115 32.905C19.115 33.235 19.025 33.505 18.845 33.715C18.665 33.925 18.44 34.09 18.17 34.21C17.9 34.33 17.6 34.42 17.27 34.48C16.94 34.51 16.625 34.525 16.325 34.525C15.275 34.525 14.24 34.465 13.22 34.345C12.23 34.195 11.255 34.045 10.295 33.895C11.135 34.195 12.2 34.435 13.49 34.615C14.78 34.795 16.085 34.885 17.405 34.885C17.075 35.095 16.685 35.26 16.235 35.38C15.785 35.5 15.32 35.56 14.84 35.56L11.6 35.155C11.18 35.095 10.85 35.035 10.61 34.975C10.4 34.915 10.19 34.855 9.98 34.795C9.77 34.705 9.53 34.615 9.26 34.525C9.02 34.435 8.675 34.33 8.225 34.21V33.715C7.445 33.505 6.815 33.145 6.335 32.635C5.855 32.125 5.48 31.57 5.21 30.97C4.94 30.37 4.76 29.77 4.67 29.17C4.58 28.54 4.535 27.985 4.535 27.505C4.535 26.995 4.535 26.53 4.535 26.11C4.565 25.66 4.58 25.21 4.58 24.76C4.58 24.43 4.565 24.01 4.535 23.5C4.535 22.99 4.52 22.45 4.49 21.88C4.46 21.31 4.43 20.725 4.4 20.125C4.4 19.525 4.4 18.955 4.4 18.415C4.4 18.085 4.4 17.77 4.4 17.47C4.43 17.17 4.46 16.9 4.49 16.66H4.04C4.01 16.87 3.995 17.11 3.995 17.38V18.19C3.995 19.06 4.01 19.93 4.04 20.8C4.07 21.64 4.085 22.42 4.085 23.14C4.115 23.86 4.145 24.49 4.175 25.03C4.205 25.54 4.22 25.915 4.22 26.155V27.955V28.315C4.13 27.505 4.04 26.35 3.95 24.85C3.86 23.11 3.815 21.19 3.815 19.09V18.28C3.815 17.95 3.815 17.635 3.815 17.335C3.845 17.035 3.89 16.81 3.95 16.66L2.42 16.57C2.09 16.36 1.76 16.195 1.43 16.075C1.1 15.955 0.8 15.895 0.53 15.895V14.995C0.53 14.815 0.545 14.665 0.575 14.545C0.635 14.395 0.785 14.32 1.025 14.32C1.085 14.32 1.235 14.35 1.475 14.41V13.87C1.145 13.69 0.875 13.45 0.665 13.15C0.455 12.82 0.35 12.49 0.35 12.16C0.35 11.38 0.905 10.99 2.015 10.99C2.435 10.99 2.87 11.02 3.32 11.08C3.77 11.14 4.235 11.185 4.715 11.215C4.835 10.555 4.94 9.97 5.03 9.46C5.12 8.92 5.21 8.41 5.3 7.93C5.39 7.42 5.495 6.925 5.615 6.445C5.735 5.935 5.885 5.41 6.065 4.87C6.335 4.27 6.545 3.625 6.695 2.935C6.845 2.215 6.95 1.51 7.01 0.819999L7.955 0.864999C8.105 0.864999 8.225 0.909999 8.315 0.999999C8.435 1.09 8.495 1.3 8.495 1.63C8.495 1.9 8.45 2.26 8.36 2.71L8.9 2.845C9.14 2.035 9.425 1.375 9.755 0.864999C10.115 0.354998 10.46 0.0999976 10.79 0.0999976C11.3 0.0999976 11.615 0.744998 11.735 2.035V2.845C11.735 3.625 11.675 4.36 11.555 5.05C11.465 5.71 11.345 6.37 11.195 7.03C11.045 7.69 10.895 8.365 10.745 9.055C10.595 9.745 10.46 10.495 10.34 11.305C11 11.395 11.645 11.44 12.275 11.44C12.575 11.44 12.875 11.44 13.175 11.44C13.475 11.41 13.775 11.395 14.075 11.395C14.375 11.395 14.69 11.275 15.02 11.035C15.35 10.795 15.65 10.675 15.92 10.675C16.16 10.675 16.34 10.75 16.46 10.9C16.58 11.05 16.64 11.215 16.64 11.395C16.1 11.545 15.56 11.71 15.02 11.89C14.51 12.04 14.015 12.19 13.535 12.34C14.015 12.28 14.525 12.175 15.065 12.025C15.605 11.845 16.175 11.68 16.775 11.53C16.775 11.68 16.775 11.815 16.775 11.935C16.805 12.055 16.85 12.19 16.91 12.34C16.97 12.34 17.045 12.325 17.135 12.295C17.315 12.235 17.42 12.205 17.45 12.205C17.75 12.355 17.945 12.55 18.035 12.79C18.125 13 18.17 13.24 18.17 13.51C18.17 13.72 18.14 13.915 18.08 14.095C18.02 14.245 17.99 14.38 17.99 14.5ZM6.065 31.105C5.645 30.295 5.42 29.5 5.39 28.72C5.36 27.94 5.315 27.205 5.255 26.515L4.85 19.675L4.715 20.485C4.715 22.495 4.775 24.325 4.895 25.975C5.045 27.595 5.255 28.855 5.525 29.755C5.525 30.025 5.51 30.205 5.48 30.295C5.48 30.385 5.48 30.46 5.48 30.52C5.48 30.58 5.51 30.655 5.57 30.745C5.66 30.835 5.825 30.955 6.065 31.105ZM8.63 28.675C8.57 28.435 8.54 28.18 8.54 27.91V25.705C8.51 26.005 8.48 26.305 8.45 26.605C8.42 26.875 8.405 27.16 8.405 27.46C8.405 28.24 8.45 28.84 8.54 29.26C8.63 29.62 8.81 29.92 9.08 30.16C8.93 29.98 8.825 29.785 8.765 29.575C8.735 29.335 8.69 29.035 8.63 28.675ZM4.265 28.63L4.22 28.315L4.265 28.63ZM9.17 30.205C9.14 30.175 9.11 30.16 9.08 30.16C9.11 30.16 9.14 30.175 9.17 30.205ZM45.3753 39.025C45.1353 38.965 44.8653 38.86 44.5653 38.71C44.2953 38.59 44.0853 38.41 43.9353 38.17C43.9353 37.12 43.9053 36.085 43.8453 35.065C43.8153 34.015 43.8003 32.965 43.8003 31.915C43.8003 30.295 43.8453 28.675 43.9353 27.055C44.0553 25.435 44.1153 23.815 44.1153 22.195C43.8753 24.775 43.7553 27.355 43.7553 29.935C43.7553 32.485 43.6803 35.05 43.5303 37.63C43.1103 37.03 42.8553 36.355 42.7653 35.605C42.7053 34.825 42.6753 34.075 42.6753 33.355L42.7653 31.105L43.2603 30.88C43.1703 30.04 43.1253 29.17 43.1253 28.27C43.1253 27.22 43.1703 26.2 43.2603 25.21C43.3503 24.19 43.4403 23.155 43.5303 22.105H43.1703L42.7203 29.17L42.9453 22.105C42.1353 22.105 41.3403 22.18 40.5603 22.33C39.7803 22.48 38.9853 22.555 38.1753 22.555C36.6453 22.555 35.1153 22.525 33.5853 22.465C32.0853 22.405 30.5703 22.345 29.0403 22.285C29.0403 23.965 28.9503 25.63 28.7703 27.28C28.6203 28.9 28.5453 30.535 28.5453 32.185C28.5453 32.425 28.5603 32.74 28.5903 33.13C28.6503 33.49 28.6803 33.88 28.6803 34.3C28.6803 34.69 28.6353 35.035 28.5453 35.335C28.4553 35.635 28.2903 35.83 28.0503 35.92L27.7353 35.83L27.7803 31.15C27.7203 31.93 27.6753 32.71 27.6453 33.49C27.6153 34.27 27.6003 35.05 27.6003 35.83C27.5103 35.8 27.3753 35.785 27.1953 35.785C26.9853 35.785 26.8503 35.8 26.7903 35.83C26.8203 35.92 26.8353 36.04 26.8353 36.19C26.8353 36.91 26.4753 37.36 25.7553 37.54C25.4853 37.42 25.2603 37.315 25.0803 37.225C24.9003 37.135 24.7503 37.015 24.6303 36.865C24.5103 36.685 24.4203 36.475 24.3603 36.235C24.3003 35.995 24.2703 35.665 24.2703 35.245V34.48L24.0453 35.965C23.8053 35.725 23.6553 35.47 23.5953 35.2C23.5353 34.93 23.5053 34.645 23.5053 34.345C23.5053 33.595 23.5353 32.86 23.5953 32.14C23.6553 31.39 23.6853 30.64 23.6853 29.89L24.0453 29.665C23.9553 28.675 23.9103 27.685 23.9103 26.695C23.9103 25.735 23.9253 24.76 23.9553 23.77C24.0153 22.78 24.0453 21.79 24.0453 20.8C24.0453 20.11 24.0303 19.405 24.0003 18.685C23.9703 17.965 23.8953 17.26 23.7753 16.57H23.5053C23.5653 17.77 23.5953 18.97 23.5953 20.17C23.6253 21.37 23.6403 22.57 23.6403 23.77V29.395C23.6403 26.395 23.5503 23.395 23.3703 20.395C23.2203 17.395 23.1453 14.395 23.1453 11.395C23.2953 9.955 23.4153 8.71 23.5053 7.66C23.6253 6.61 23.7603 5.455 23.9103 4.195C24.2103 4.225 24.5403 4.27 24.9003 4.33C25.2903 4.39 25.4853 4.63 25.4853 5.05L25.3953 5.815H25.9803C26.0403 5.635 26.1153 5.425 26.2053 5.185C26.3253 4.915 26.4603 4.675 26.6103 4.465C26.7603 4.225 26.9253 4.03 27.1053 3.88C27.3153 3.7 27.5403 3.61 27.7803 3.61C28.0803 3.61 28.3053 3.835 28.4553 4.285C28.6353 4.705 28.7703 5.26 28.8603 5.95C28.9503 6.64 29.0103 7.45 29.0403 8.38C29.0703 9.28 29.0853 10.195 29.0853 11.125C29.0853 11.635 29.0703 12.13 29.0403 12.61C29.0403 13.09 29.0403 13.555 29.0403 14.005C29.0403 14.605 29.0403 15.175 29.0403 15.715C29.0703 16.225 29.1003 16.69 29.1303 17.11H31.5153L31.8753 17.65C32.2953 17.59 32.7003 17.545 33.0903 17.515C33.4803 17.485 33.8853 17.47 34.3053 17.47C34.6353 17.47 34.9803 17.485 35.3403 17.515C35.7003 17.515 36.0453 17.515 36.3753 17.515C36.9453 17.515 37.5003 17.485 38.0403 17.425C38.6103 17.365 39.1803 17.26 39.7503 17.11V16.84C38.7003 16.99 37.6653 17.08 36.6453 17.11C35.7153 17.11 34.7703 17.11 33.8103 17.11C35.2803 17.05 36.7803 16.945 38.3103 16.795C39.9003 16.645 41.4903 16.54 43.0803 16.48C43.0803 14.74 43.1403 13 43.2603 11.26C43.3803 9.52 43.4403 7.795 43.4403 6.085L43.3953 5.14L44.5203 5.05C44.6403 5.05 44.7303 5.125 44.7903 5.275C44.8803 5.395 44.9553 5.545 45.0153 5.725C45.0753 5.875 45.1203 6.04 45.1503 6.22C45.1803 6.37 45.1953 6.475 45.1953 6.535C45.2853 6.445 45.3903 6.31 45.5103 6.13C45.6303 5.95 45.7503 5.77 45.8703 5.59C46.0203 5.41 46.1553 5.26 46.2753 5.14C46.3953 4.99 46.4853 4.915 46.5453 4.915C47.0553 4.915 47.4603 5.005 47.7603 5.185C48.0603 5.365 48.2853 5.62 48.4353 5.95C48.6153 6.25 48.7203 6.595 48.7503 6.985C48.8103 7.375 48.8403 7.765 48.8403 8.155C48.8403 8.455 48.8253 8.755 48.7953 9.055C48.7953 9.325 48.7953 9.58 48.7953 9.82V15.445C48.7953 18.355 48.6303 21.265 48.3003 24.175C47.9703 27.055 47.8053 29.935 47.8053 32.815C47.8053 33.025 47.8353 33.415 47.8953 33.985C47.9853 34.525 48.0303 35.065 48.0303 35.605C48.0303 36.025 47.9853 36.385 47.8953 36.685C47.8053 36.955 47.6403 37.09 47.4003 37.09C47.1903 35.98 47.0553 34.84 46.9953 33.67C46.9953 34.81 47.0403 35.95 47.1303 37.09L46.7253 37C46.6653 37.42 46.5303 37.825 46.3203 38.215C46.1403 38.605 45.8253 38.875 45.3753 39.025ZM24.6303 29.125C24.7203 28.045 24.7653 26.95 24.7653 25.84C24.7653 25.06 24.7503 24.295 24.7203 23.545C24.6903 22.855 24.6453 22.15 24.5853 21.43C24.5853 22.42 24.5853 23.41 24.5853 24.4C24.6153 25.42 24.6303 26.455 24.6303 27.505V29.125ZM34.2153 18.28C34.6653 18.28 35.1153 18.265 35.5653 18.235C36.0453 18.205 36.5103 18.16 36.9603 18.1H36.0603C35.4303 18.1 34.8003 18.115 34.1703 18.145C33.5703 18.175 32.9553 18.19 32.3253 18.19C32.6553 18.25 32.9703 18.28 33.2703 18.28H34.2153ZM29.1753 18.235H32.0553C31.9653 18.235 31.8753 18.22 31.7853 18.19C31.5153 18.16 31.2003 18.13 30.8403 18.1C30.4803 18.07 30.1353 18.04 29.8053 18.01C29.5053 17.98 29.2953 17.95 29.1753 17.92V18.235ZM47.0853 27.325C47.0253 28.315 46.9953 29.305 46.9953 30.295C47.0553 29.335 47.1153 28.345 47.1753 27.325C47.2653 26.275 47.3703 25.24 47.4903 24.22C47.3103 25.24 47.1753 26.275 47.0853 27.325ZM31.8753 21.385C30.9753 21.295 30.0753 21.25 29.1753 21.25L29.1303 21.385H31.8753ZM70.1886 37.81C69.0486 38.2 68.1786 38.41 67.5786 38.44C66.9786 38.5 66.4536 38.545 66.0036 38.575C64.3236 38.575 62.8086 38.26 61.4586 37.63C60.1086 37 58.9536 36.145 57.9936 35.065C57.0336 33.985 56.2836 32.725 55.7436 31.285C55.2336 29.815 54.9786 28.255 54.9786 26.605C54.9786 25.645 55.0686 24.655 55.2486 23.635C55.4286 22.585 55.6986 21.565 56.0586 20.575C56.4186 19.555 56.8836 18.61 57.4536 17.74C57.9936 16.87 58.6386 16.09 59.3886 15.4C58.6086 16.03 57.9486 16.78 57.4086 17.65C56.8386 18.52 56.3586 19.465 55.9686 20.485C55.5786 21.475 55.2936 22.51 55.1136 23.59C54.9336 24.64 54.8436 25.66 54.8436 26.65C54.8436 27.91 55.0386 29.26 55.4286 30.7C55.8486 32.11 56.5086 33.43 57.4086 34.66C58.3086 35.86 59.4636 36.865 60.8736 37.675C62.3136 38.485 64.0536 38.89 66.0936 38.89C67.0536 38.89 68.0586 38.755 69.1086 38.485C67.9686 39.235 66.6936 39.61 65.2836 39.61C64.1436 39.61 63.0636 39.43 62.0436 39.07C61.0536 38.74 60.1236 38.26 59.2536 37.63C58.4136 37.03 57.6486 36.31 56.9586 35.47C56.2686 34.63 55.6836 33.73 55.2036 32.77L55.6086 32.41C55.0986 31.39 54.7236 30.37 54.4836 29.35C54.2736 28.33 54.1686 27.295 54.1686 26.245C54.1686 24.715 54.3786 23.245 54.7986 21.835C55.2486 20.425 55.8336 19.09 56.5536 17.83L57.6336 16.345C57.8136 16.015 58.0686 15.685 58.3986 15.355C58.7586 15.025 59.1486 14.71 59.5686 14.41C59.9886 14.08 60.4236 13.795 60.8736 13.555C61.3536 13.285 61.8036 13.045 62.2236 12.835C63.3036 12.295 64.3836 11.815 65.4636 11.395C66.5436 10.945 67.8036 10.615 69.2436 10.405L69.0636 10.27C66.3036 10.54 63.9636 11.215 62.0436 12.295C60.1236 13.345 58.5636 14.635 57.3636 16.165C56.1636 17.695 55.2936 19.375 54.7536 21.205C54.2136 23.005 53.9436 24.775 53.9436 26.515C53.9436 27.445 54.0186 28.39 54.1686 29.35C54.3486 30.28 54.6036 31.21 54.9336 32.14C54.1836 30.34 53.8086 28.435 53.8086 26.425C53.8086 24.445 54.1386 22.48 54.7986 20.53C55.4586 18.58 56.4936 16.78 57.9036 15.13C59.7036 13.48 61.6686 12.22 63.7986 11.35C65.9286 10.45 67.9836 10 69.9636 10C70.5936 10 71.2386 10.105 71.8986 10.315C72.5586 10.525 73.1586 10.855 73.6986 11.305C74.2386 11.725 74.6736 12.28 75.0036 12.97C75.3636 13.66 75.5436 14.5 75.5436 15.49C75.5436 16.3 75.3486 17.29 74.9586 18.46C74.5686 19.63 73.9836 20.77 73.2036 21.88C72.4536 22.96 71.5086 23.89 70.3686 24.67C69.2286 25.42 67.9086 25.795 66.4086 25.795H64.9236C63.8136 25.555 62.7936 25.285 61.8636 24.985C60.9636 24.655 60.1086 24.4 59.2986 24.22C59.1786 24.7 59.1036 25.165 59.0736 25.615C59.0736 26.035 59.0736 26.455 59.0736 26.875C59.0736 27.745 59.1636 28.6 59.3436 29.44C59.5536 30.25 59.8686 31 60.2886 31.69C60.7086 32.38 61.2336 32.965 61.8636 33.445C62.5236 33.895 63.3186 34.18 64.2486 34.3C64.8186 34.42 65.3136 34.495 65.7336 34.525C66.1536 34.525 66.4986 34.54 66.7686 34.57C67.0686 34.57 67.2786 34.615 67.3986 34.705C67.5486 34.765 67.6236 34.9 67.6236 35.11C67.3236 35.2 67.0086 35.26 66.6786 35.29C66.3786 35.32 66.0636 35.335 65.7336 35.335C64.6836 35.335 63.7386 35.17 62.8986 34.84C62.0586 34.48 61.3386 34.075 60.7386 33.625C61.4286 34.315 62.2536 34.81 63.2136 35.11C64.1736 35.38 65.1186 35.515 66.0486 35.515C66.5586 35.515 67.0836 35.47 67.6236 35.38C67.5636 35.56 67.5336 35.665 67.5336 35.695C67.5336 35.875 67.6086 35.995 67.7586 36.055C67.8786 36.025 68.0886 35.95 68.3886 35.83C68.6886 35.68 68.9886 35.545 69.2886 35.425C69.6186 35.275 69.9336 35.155 70.2336 35.065C70.5336 34.945 70.7436 34.885 70.8636 34.885C71.0136 34.885 71.1486 34.915 71.2686 34.975C71.3886 35.005 71.4486 35.17 71.4486 35.47C71.4486 35.77 71.3436 36.13 71.1336 36.55C70.9236 36.97 70.6086 37.39 70.1886 37.81ZM63.9786 19.99L64.9686 20.17C65.2986 20.23 65.5986 20.26 65.8686 20.26C66.1686 20.26 66.5136 20.17 66.9036 19.99C67.3236 19.78 67.7286 19.495 68.1186 19.135C68.5386 18.775 68.8986 18.325 69.1986 17.785C69.5286 17.245 69.7686 16.63 69.9186 15.94L70.0086 15.67C69.5886 15.67 68.9586 15.775 68.1186 15.985C67.2786 16.195 66.4086 16.48 65.5086 16.84C64.6086 17.17 63.7686 17.575 62.9886 18.055C62.2086 18.505 61.6686 19 61.3686 19.54C61.8186 19.63 62.2536 19.72 62.6736 19.81C63.1236 19.87 63.5586 19.93 63.9786 19.99ZM61.9086 23.32C61.9686 23.26 61.9986 23.17 61.9986 23.05C62.0286 22.93 62.0436 22.84 62.0436 22.78L59.9286 22.015L59.7036 22.645L61.9086 23.32ZM60.6486 33.535C60.4386 33.295 60.2286 33.055 60.0186 32.815C59.8386 32.605 59.6886 32.395 59.5686 32.185C59.8386 32.695 60.1986 33.145 60.6486 33.535ZM109.692 20.26L109.602 20.125C109.602 19.765 109.527 19.375 109.377 18.955C109.257 18.535 109.107 18.115 108.927 17.695C108.747 17.275 108.537 16.87 108.297 16.48C108.087 16.06 107.892 15.67 107.712 15.31L107.397 15.13C107.787 16.06 108.192 16.9 108.612 17.65C109.032 18.4 109.242 19.195 109.242 20.035L109.467 20.305L109.062 20.125V19.855C108.522 18.805 107.997 17.665 107.487 16.435C107.007 15.175 106.512 14.02 106.002 12.97C105.702 14.98 105.327 16.99 104.877 19C104.427 21.01 103.857 22.96 103.167 24.85C102.567 26.47 101.847 28.03 101.007 29.53C100.167 31 99.4619 32.56 98.8919 34.21L98.5319 33.94L98.0369 34.03C97.7669 33.97 97.6319 33.79 97.6319 33.49C97.6319 33.25 97.6769 32.965 97.7669 32.635C97.8569 32.275 97.9619 31.915 98.0819 31.555C98.2319 31.195 98.3819 30.85 98.5319 30.52C98.6819 30.16 98.8019 29.875 98.8919 29.665L98.4869 29.53C98.3969 29.71 98.1719 30.115 97.8119 30.745C97.4819 31.375 97.1069 32.02 96.6869 32.68C96.2969 33.34 95.9069 33.94 95.5169 34.48C95.1269 35.02 94.8269 35.29 94.6169 35.29C94.4669 35.2 94.3619 35.065 94.3019 34.885C94.2419 34.675 94.2119 34.495 94.2119 34.345C94.2119 33.475 94.4069 32.35 94.7969 30.97C95.2169 29.59 95.6969 28.165 96.2369 26.695C96.7769 25.195 97.3169 23.74 97.8569 22.33C98.4269 20.92 98.8619 19.735 99.1619 18.775C99.4319 17.935 99.6719 17.035 99.8819 16.075C100.122 15.085 100.317 14.095 100.467 13.105C100.647 12.085 100.797 11.08 100.917 10.09C101.037 9.1 101.142 8.155 101.232 7.255C101.742 6.865 102.432 6.535 103.302 6.265C104.202 5.995 105.027 5.71 105.777 5.41C107.397 6.73 108.792 8.245 109.962 9.955C111.132 11.665 112.152 13.6 113.022 15.76C113.562 14.95 114.057 14.05 114.507 13.06C114.987 12.07 115.422 11.05 115.812 10C116.202 8.92 116.577 7.855 116.937 6.805C117.297 5.755 117.657 4.78 118.017 3.88C118.767 3.64 119.547 3.46 120.357 3.34C121.197 3.22 122.022 3.085 122.832 2.935C123.642 4.615 124.407 6.22 125.127 7.75C125.847 9.28 126.507 10.825 127.107 12.385C127.737 13.915 128.292 15.49 128.772 17.11C129.282 18.73 129.732 20.47 130.122 22.33C130.302 23.29 130.527 24.265 130.797 25.255C131.067 26.215 131.307 27.19 131.517 28.18C131.757 29.17 131.952 30.16 132.102 31.15C132.282 32.14 132.372 33.13 132.372 34.12C132.372 34.21 132.327 34.33 132.237 34.48C132.177 34.63 132.027 34.72 131.787 34.75C131.307 31.93 130.782 29.14 130.212 26.38C129.642 23.68 128.937 20.995 128.097 18.325C128.847 20.995 129.492 23.65 130.032 26.29C130.602 29.02 131.097 31.795 131.517 34.615L130.887 34.975C130.947 35.335 131.022 35.71 131.112 36.1C131.202 36.49 131.247 36.865 131.247 37.225C131.247 37.315 131.232 37.495 131.202 37.765C131.202 38.065 131.172 38.365 131.112 38.665C131.082 38.965 131.007 39.22 130.887 39.43C130.797 39.67 130.662 39.79 130.482 39.79C130.302 39.79 130.107 39.67 129.897 39.43C129.717 39.22 129.537 38.95 129.357 38.62C129.207 38.32 129.057 38.02 128.907 37.72C128.787 37.45 128.697 37.24 128.637 37.09C128.457 35.11 128.142 32.905 127.692 30.475C127.272 28.015 126.762 25.54 126.162 23.05C125.562 20.53 124.872 18.1 124.092 15.76C123.342 13.39 122.547 11.305 121.707 9.505L121.662 9.73C122.622 11.77 123.447 13.87 124.137 16.03C124.827 18.16 125.427 20.335 125.937 22.555C126.447 24.745 126.882 26.965 127.242 29.215C127.602 31.435 127.917 33.64 128.187 35.83C127.557 34.45 127.047 33.055 126.657 31.645C126.297 30.205 125.967 28.78 125.667 27.37C125.397 25.93 125.112 24.49 124.812 23.05C124.542 21.61 124.197 20.155 123.777 18.685L124.092 17.785C123.672 16.555 123.237 15.34 122.787 14.14C122.367 12.94 121.872 11.77 121.302 10.63L121.122 11.08C120.792 11.98 120.372 13.03 119.862 14.23C119.352 15.43 118.752 16.6 118.062 17.74C117.372 18.88 116.592 19.9 115.722 20.8C114.882 21.7 113.952 22.3 112.932 22.6C112.302 22.21 111.657 21.85 110.997 21.52C110.367 21.16 109.722 20.8 109.062 20.44V20.17L110.862 21.16C111.462 21.49 112.062 21.835 112.662 22.195L113.022 22.105C114.312 21.355 115.347 20.605 116.127 19.855C116.937 19.105 117.627 18.28 118.197 17.38C118.767 16.48 119.262 15.475 119.682 14.365C120.132 13.225 120.642 11.935 121.212 10.495L121.032 10.09L120.852 10.495L120.087 12.25C119.787 12.97 119.412 13.75 118.962 14.59C118.542 15.4 118.062 16.24 117.522 17.11C117.012 17.95 116.487 18.73 115.947 19.45C115.407 20.14 114.852 20.71 114.282 21.16C113.712 21.58 113.172 21.79 112.662 21.79L109.692 20.26ZM125.172 9.37C125.112 9.19 125.007 8.95 124.857 8.65C124.707 8.32 124.542 7.99 124.362 7.66C124.212 7.33 124.062 7.015 123.912 6.715C123.762 6.385 123.642 6.145 123.552 5.995L124.047 7.39L125.037 9.46L125.172 9.37ZM120.447 9.55L118.917 13.6C119.217 12.97 119.487 12.34 119.727 11.71C119.997 11.08 120.252 10.45 120.492 9.82L120.447 9.55ZM119.277 5.41L119.862 6.895L120.087 6.85L119.547 5.41H119.277ZM101.682 7.84L101.592 9.19C101.592 9.49 101.562 9.895 101.502 10.405L101.997 7.75L101.682 7.84ZM117.072 8.785L118.242 5.995H118.062L117.072 8.785ZM123.417 5.725L122.382 4.015L122.472 4.51L123.417 5.725ZM121.482 9.01L121.392 9.19L121.572 9.55L121.617 9.325L121.482 9.01ZM159.932 9.595L159.797 10.405C159.647 11.875 159.557 13.45 159.527 15.13C159.497 16.78 159.377 18.445 159.167 20.125C159.407 18.475 159.602 16.855 159.752 15.265C159.902 13.615 160.052 11.995 160.202 10.405C160.352 10.885 160.472 11.395 160.562 11.935C160.682 12.475 160.742 13.045 160.742 13.645C160.592 15.145 160.457 16.585 160.337 17.965C160.217 19.345 160.052 20.785 159.842 22.285L159.257 22.42C159.107 23.8 158.792 25.3 158.312 26.92C157.832 28.54 157.127 30.04 156.197 31.42C155.297 32.8 154.127 33.955 152.687 34.885C151.247 35.785 149.522 36.235 147.512 36.235C146.852 36.235 146.147 36.19 145.397 36.1C144.677 35.98 143.972 35.815 143.282 35.605C142.592 35.365 141.932 35.065 141.302 34.705C140.672 34.345 140.132 33.895 139.682 33.355L139.727 33.445V33.49L139.682 33.535L139.547 33.49C139.727 33.76 139.922 34 140.132 34.21C139.592 33.73 139.097 33.175 138.647 32.545C137.897 31.525 137.297 30.31 136.847 28.9C136.577 28.06 136.367 27.205 136.217 26.335C136.067 25.465 135.962 24.55 135.902 23.59C135.842 22.6 135.797 21.535 135.767 20.395C135.767 19.255 135.767 17.995 135.767 16.615C136.037 15.535 136.247 14.455 136.397 13.375C136.547 12.295 136.652 11.215 136.712 10.135C136.802 10.135 136.907 10.12 137.027 10.09C137.147 10.06 137.267 10.045 137.387 10.045C137.597 10.045 137.777 10.165 137.927 10.405C138.107 10.645 138.197 11.155 138.197 11.935V12.34C138.197 12.46 138.182 12.595 138.152 12.745H138.692C138.932 11.485 139.217 10.525 139.547 9.865C139.877 9.205 140.207 8.875 140.537 8.875C140.777 8.875 140.987 9.22 141.167 9.91C141.377 10.57 141.482 11.62 141.482 13.06C141.482 14.11 141.452 15.175 141.392 16.255C141.332 17.335 141.302 18.445 141.302 19.585C141.302 21.355 141.377 22.96 141.527 24.4C141.707 25.84 142.037 27.07 142.517 28.09C142.997 29.11 143.672 29.905 144.542 30.475C145.442 31.015 146.597 31.285 148.007 31.285C149.177 31.285 150.152 30.925 150.932 30.205C151.712 29.485 152.372 28.525 152.912 27.325C153.452 26.125 153.902 24.745 154.262 23.185C154.652 21.595 155.012 19.945 155.342 18.235C155.402 17.755 155.447 17.275 155.477 16.795C155.507 16.315 155.522 15.82 155.522 15.31V13.915C155.522 13.045 155.567 12.31 155.657 11.71C155.747 11.11 156.002 10.765 156.422 10.675C156.422 12.205 156.377 13.72 156.287 15.22C156.227 16.66 156.107 18.1 155.927 19.54C156.137 18.13 156.302 16.72 156.422 15.31C156.542 13.84 156.632 12.34 156.692 10.81C156.872 10.93 157.022 10.99 157.142 10.99C157.262 10.99 157.382 10.93 157.502 10.81V9.19C157.652 8.65 157.802 8.275 157.952 8.065C158.102 7.825 158.267 7.705 158.447 7.705C158.627 7.705 158.807 7.795 158.987 7.975C159.167 8.155 159.347 8.38 159.527 8.65L159.932 9.595ZM141.347 35.11C142.067 35.5 142.802 35.815 143.552 36.055C144.332 36.265 145.052 36.415 145.712 36.505C146.402 36.595 146.957 36.64 147.377 36.64C149.477 36.64 151.262 36.175 152.732 35.245C154.202 34.315 155.402 33.16 156.332 31.78C157.292 30.37 158.027 28.87 158.537 27.28C159.017 25.78 159.377 24.4 159.617 23.14C159.407 24.4 159.077 25.795 158.627 27.325C158.117 28.945 157.382 30.46 156.422 31.87C155.492 33.28 154.307 34.465 152.867 35.425C151.427 36.385 149.687 36.865 147.647 36.865C146.507 36.865 145.382 36.715 144.272 36.415C143.162 36.115 142.127 35.65 141.167 35.02C141.227 35.05 141.287 35.08 141.347 35.11ZM158.582 24.04C158.672 23.53 158.747 23.035 158.807 22.555C158.867 22.135 158.927 21.715 158.987 21.295C158.807 22.615 158.507 24.01 158.087 25.48C157.667 27.01 157.082 28.465 156.332 29.845C155.582 31.195 154.637 32.395 153.497 33.445C152.417 34.435 151.157 35.11 149.717 35.47C150.977 35.2 152.102 34.675 153.092 33.895C154.112 33.085 154.982 32.14 155.702 31.06C156.422 29.98 157.007 28.825 157.457 27.595C157.937 26.365 158.312 25.18 158.582 24.04ZM154.127 27.19C153.797 27.85 153.422 28.48 153.002 29.08C152.612 29.68 152.162 30.22 151.652 30.7C152.192 30.25 152.657 29.725 153.047 29.125C153.467 28.525 153.827 27.88 154.127 27.19ZM141.167 35.02C140.807 34.78 140.462 34.51 140.132 34.21C140.462 34.51 140.807 34.78 141.167 35.02ZM159.662 22.825L159.617 23.14L159.662 22.825ZM159.032 21.07C159.002 21.16 158.987 21.235 158.987 21.295C158.987 21.235 159.002 21.16 159.032 21.07ZM192.119 35.605C191.879 35.155 191.459 34.705 190.859 34.255C190.259 33.775 189.539 33.31 188.699 32.86C187.859 32.41 186.959 31.975 185.999 31.555C185.039 31.135 184.094 30.73 183.164 30.34C182.234 29.92 181.364 29.53 180.554 29.17C179.984 28.93 179.489 28.69 179.069 28.45C179.939 28.96 180.854 29.425 181.814 29.845C182.924 30.355 184.034 30.88 185.144 31.42C186.284 31.96 187.379 32.53 188.429 33.13C189.479 33.73 190.439 34.42 191.309 35.2C190.439 34.96 189.344 34.57 188.024 34.03C186.704 33.46 185.354 32.845 183.974 32.185C182.624 31.495 181.304 30.805 180.014 30.115C178.754 29.425 177.734 28.825 176.954 28.315L177.269 27.91C176.429 27.34 175.574 26.68 174.704 25.93C173.834 25.18 173.159 24.355 172.679 23.455C172.349 24.865 172.154 26.215 172.094 27.505C172.034 28.795 172.004 30.025 172.004 31.195C172.004 31.615 172.109 32.02 172.319 32.41C172.529 32.77 172.634 33.115 172.634 33.445C172.634 33.895 172.424 34.165 172.004 34.255C171.764 33.685 171.584 33.115 171.464 32.545C171.344 31.975 171.254 31.405 171.194 30.835C171.194 31.435 171.224 32.02 171.284 32.59C171.374 33.19 171.524 33.79 171.734 34.39L171.059 34.66L171.464 35.2C171.404 35.53 171.269 35.845 171.059 36.145C170.879 36.415 170.594 36.55 170.204 36.55C169.724 36.55 169.334 36.295 169.034 35.785C168.764 35.245 168.539 34.615 168.359 33.895C168.209 33.145 168.104 32.395 168.044 31.645C168.014 30.865 167.999 30.22 167.999 29.71C167.999 28.69 167.999 27.685 167.999 26.695C168.029 25.705 168.074 24.7 168.134 23.68C167.984 24.64 167.894 25.615 167.864 26.605C167.864 27.595 167.864 28.585 167.864 29.575C167.864 30.625 167.924 31.705 168.044 32.815C168.164 33.925 168.344 34.99 168.584 36.01C168.194 35.65 167.894 35.245 167.684 34.795C167.504 34.345 167.354 33.88 167.234 33.4C167.144 32.89 167.069 32.38 167.009 31.87C166.979 31.36 166.949 30.865 166.919 30.385L167.459 30.25C167.339 29.8 167.264 29.35 167.234 28.9C167.204 28.42 167.189 27.94 167.189 27.46C167.189 26.41 167.264 25.39 167.414 24.4C167.564 23.38 167.639 22.345 167.639 21.295V20.755L167.594 19.63H167.324C167.264 21.07 167.174 22.51 167.054 23.95C166.964 25.39 166.904 26.845 166.874 28.315C166.844 28.015 166.829 27.73 166.829 27.46V26.605C166.829 24.415 166.934 22.27 167.144 20.17C167.384 18.04 167.624 15.895 167.864 13.735C167.924 13.045 168.104 12.415 168.404 11.845C168.704 11.245 168.944 10.63 169.124 10C169.244 10.09 169.394 10.15 169.574 10.18C169.754 10.18 169.919 10.195 170.069 10.225C170.219 10.225 170.354 10.27 170.474 10.36C170.594 10.45 170.654 10.6 170.654 10.81C170.654 10.93 170.639 11.05 170.609 11.17L170.519 11.53L170.924 11.665C171.134 11.335 171.404 11.02 171.734 10.72C172.064 10.42 172.439 10.27 172.859 10.27C173.189 10.27 173.429 10.405 173.579 10.675C173.729 10.945 173.804 11.23 173.804 11.53C173.804 11.71 173.774 12.085 173.714 12.655C173.684 13.225 173.624 13.885 173.534 14.635C173.474 15.385 173.399 16.195 173.309 17.065C173.219 17.905 173.129 18.7 173.039 19.45C172.979 20.2 172.919 20.845 172.859 21.385C172.799 21.895 172.769 22.21 172.769 22.33L173.849 19.9C173.759 20.17 173.669 20.395 173.579 20.575C173.519 20.755 173.459 20.935 173.399 21.115C173.339 21.295 173.249 21.49 173.129 21.7C173.039 21.91 172.904 22.18 172.724 22.51V23.14L174.209 19.765C174.689 19.765 175.154 19.765 175.604 19.765C176.084 19.735 176.564 19.675 177.044 19.585L177.494 19.495C176.834 19.495 176.309 19.495 175.919 19.495C175.559 19.465 175.214 19.42 174.884 19.36C176.084 19.36 177.269 19.345 178.439 19.315C179.639 19.255 180.854 19.225 182.084 19.225C183.164 19.225 184.229 19.195 185.279 19.135C186.359 19.075 187.319 18.865 188.159 18.505C189.029 18.145 189.734 17.59 190.274 16.84C190.814 16.09 191.084 15.025 191.084 13.645C191.084 12.235 190.904 11.095 190.544 10.225C190.184 9.355 189.659 8.68 188.969 8.2C188.309 7.69 187.469 7.36 186.449 7.21C185.429 7.03 184.274 6.94 182.984 6.94C180.344 6.94 177.689 7.06 175.019 7.3C172.349 7.54 169.739 7.99 167.189 8.65C167.129 8.41 167.084 8.2 167.054 8.02C167.024 7.81 166.949 7.63 166.829 7.48C166.829 7.3 166.994 7.135 167.324 6.985C167.654 6.835 168.029 6.715 168.449 6.625C168.869 6.535 169.259 6.46 169.619 6.4C170.009 6.34 170.264 6.295 170.384 6.265V5.725C170.174 5.755 169.814 5.785 169.304 5.815C168.794 5.845 168.239 5.86 167.639 5.86C166.829 5.86 166.079 5.815 165.389 5.725C164.699 5.605 164.354 5.38 164.354 5.05C164.354 4.69 164.744 4.345 165.524 4.015C166.334 3.685 167.354 3.385 168.584 3.115C169.814 2.815 171.164 2.56 172.634 2.35C174.104 2.14 175.514 1.96 176.864 1.81C178.244 1.63 179.459 1.51 180.509 1.45C181.589 1.36 182.339 1.315 182.759 1.315C184.919 1.315 186.869 1.54 188.609 1.99C190.349 2.41 191.819 3.115 193.019 4.105C194.249 5.095 195.179 6.4 195.809 8.02C196.469 9.61 196.799 11.575 196.799 13.915C196.799 15.865 196.424 17.53 195.674 18.91C194.954 20.26 193.979 21.37 192.749 22.24C191.519 23.08 190.109 23.71 188.519 24.13C186.929 24.52 185.279 24.715 183.569 24.715C183.089 24.715 182.609 24.7 182.129 24.67C181.679 24.64 181.214 24.61 180.734 24.58C181.064 24.79 181.604 25.075 182.354 25.435C183.134 25.795 183.989 26.2 184.919 26.65C185.879 27.1 186.869 27.58 187.889 28.09C188.939 28.57 189.884 29.05 190.724 29.53C191.564 29.98 192.254 30.415 192.794 30.835C193.334 31.225 193.604 31.54 193.604 31.78L193.379 32.05C192.389 31.33 191.369 30.7 190.319 30.16C189.269 29.62 188.189 29.11 187.079 28.63C185.999 28.15 184.904 27.685 183.794 27.235C182.744 26.785 181.694 26.26 180.644 25.66C181.664 26.26 182.684 26.785 183.704 27.235L186.899 28.675C187.979 29.155 189.029 29.665 190.049 30.205C191.099 30.715 192.104 31.33 193.064 32.05L192.479 32.59C192.689 32.74 192.929 32.95 193.199 33.22C193.499 33.46 193.769 33.73 194.009 34.03C194.279 34.33 194.504 34.645 194.684 34.975C194.864 35.275 194.954 35.56 194.954 35.83C194.954 36.22 194.774 36.415 194.414 36.415C194.054 36.415 193.664 36.31 193.244 36.1C192.824 35.89 192.449 35.725 192.119 35.605ZM182.309 19.495C181.709 19.495 181.079 19.51 180.419 19.54C179.789 19.54 179.144 19.54 178.484 19.54C179.234 19.57 180.014 19.615 180.824 19.675C181.634 19.705 182.459 19.72 183.299 19.72C184.349 19.72 185.369 19.66 186.359 19.54C187.379 19.39 188.279 19.105 189.059 18.685C189.839 18.235 190.454 17.635 190.904 16.885C191.384 16.105 191.624 15.085 191.624 13.825C191.624 13.405 191.594 13 191.534 12.61C191.474 12.22 191.399 11.815 191.309 11.395H191.039C191.219 12.115 191.309 12.85 191.309 13.6C191.309 14.95 191.069 16.015 190.589 16.795C190.109 17.575 189.464 18.175 188.654 18.595C187.844 18.985 186.884 19.24 185.774 19.36C184.694 19.45 183.539 19.495 182.309 19.495ZM174.344 20.485C175.544 20.545 176.759 20.59 177.989 20.62C179.249 20.62 180.539 20.62 181.859 20.62C182.639 20.62 183.419 20.605 184.199 20.575C184.979 20.515 185.729 20.41 186.449 20.26C186.119 20.32 185.789 20.35 185.459 20.35H184.514C184.154 20.35 183.719 20.35 183.209 20.35C182.699 20.32 182.144 20.29 181.544 20.26C180.944 20.23 180.314 20.215 179.654 20.215C178.994 20.185 178.349 20.17 177.719 20.17C177.029 20.17 176.399 20.185 175.829 20.215C175.259 20.245 174.764 20.335 174.344 20.485ZM172.634 23.95C173.234 24.73 173.834 25.465 174.434 26.155C175.064 26.815 175.769 27.445 176.549 28.045C175.829 27.535 175.094 26.92 174.344 26.2C173.624 25.48 173.054 24.73 172.634 23.95ZM179.294 23.59C179.894 23.65 180.494 23.695 181.094 23.725C181.664 23.755 182.204 23.785 182.714 23.815C182.294 23.785 181.874 23.74 181.454 23.68C180.974 23.59 180.494 23.545 180.014 23.545H179.654C179.534 23.545 179.414 23.56 179.294 23.59ZM174.209 20.485C174.179 20.575 174.089 20.755 173.939 21.025C173.819 21.295 173.684 21.595 173.534 21.925C173.414 22.225 173.294 22.51 173.174 22.78C173.054 23.05 172.994 23.23 172.994 23.32L173.084 23.23L174.209 20.62V20.485ZM178.889 24.445H178.754C179.174 24.775 179.654 25.09 180.194 25.39L178.889 24.445ZM173.354 23.68C173.414 23.83 173.504 24.01 173.624 24.22C173.774 24.4 173.954 24.595 174.164 24.805C173.984 24.595 173.834 24.385 173.714 24.175C173.594 23.935 173.504 23.71 173.444 23.5L173.354 23.68ZM178.664 28.225C178.754 28.285 178.829 28.33 178.889 28.36L178.664 28.225ZM223.18 29.665L222.91 29.53C221.65 29.2 220.315 28.99 218.905 28.9C217.495 28.81 216.055 28.615 214.585 28.315C216.025 28.615 217.435 28.855 218.815 29.035C220.195 29.185 221.56 29.485 222.91 29.935C222.49 30.205 222.04 30.34 221.56 30.34C220.99 30.28 220.42 30.19 219.85 30.07C219.31 29.95 218.725 29.86 218.095 29.8C218.095 29.62 218.14 29.485 218.23 29.395C217.36 29.395 216.49 29.305 215.62 29.125C214.78 28.945 213.955 28.75 213.145 28.54C212.335 28.3 211.54 28.09 210.76 27.91C210.01 27.7 209.305 27.595 208.645 27.595C208.645 27.685 208.63 27.73 208.6 27.73C209.38 27.88 210.115 28.09 210.805 28.36C211.495 28.63 212.275 28.84 213.145 28.99C213.985 29.2 214.795 29.35 215.575 29.44C216.385 29.53 217.18 29.65 217.96 29.8C216.7 29.68 215.41 29.5 214.09 29.26C212.8 29.02 211.525 28.75 210.265 28.45L208.15 27.91C207.4 29.83 206.635 31.72 205.855 33.58C205.105 35.41 204.37 37.27 203.65 39.16C203.59 39.04 203.485 38.965 203.335 38.935C203.215 38.935 203.08 38.935 202.93 38.935C202.81 38.935 202.69 38.89 202.57 38.8C202.45 38.74 202.39 38.59 202.39 38.35C202.39 38.11 202.45 37.765 202.57 37.315C202.69 36.895 202.915 36.325 203.245 35.605C203.185 35.545 203.08 35.515 202.93 35.515C202.81 35.485 202.72 35.47 202.66 35.47C202.06 36.73 201.475 37.69 200.905 38.35C200.365 39.04 199.93 39.385 199.6 39.385C199.24 39.385 199.06 39.04 199.06 38.35C199.06 37.78 199.165 37.06 199.375 36.19C199.585 35.29 199.84 34.33 200.14 33.31C200.47 32.29 200.83 31.24 201.22 30.16C201.61 29.05 201.985 27.97 202.345 26.92C202.015 26.71 201.655 26.56 201.265 26.47C200.905 26.38 200.5 26.305 200.05 26.245C200.14 26.125 200.185 25.975 200.185 25.795C200.185 25.615 200.2 25.435 200.23 25.255C200.26 25.075 200.32 24.925 200.41 24.805C200.5 24.685 200.665 24.625 200.905 24.625C200.965 24.625 201.145 24.655 201.445 24.715V24.31C200.965 24.07 200.59 23.785 200.32 23.455C200.08 23.125 199.96 22.795 199.96 22.465C199.96 21.745 200.65 21.385 202.03 21.385C202.42 21.385 202.81 21.415 203.2 21.475C203.62 21.505 204.04 21.55 204.46 21.61L206.53 16.885C206.98 15.865 207.46 14.815 207.97 13.735C208.51 12.655 209.14 11.59 209.86 10.54C210.58 9.49 211.39 8.5 212.29 7.57C213.22 6.61 214.285 5.755 215.485 5.005L216.16 4.735C217 4.945 217.675 5.125 218.185 5.275C218.725 5.395 219.16 5.485 219.49 5.545C219.79 5.665 220.03 5.74 220.21 5.77H220.165L220.21 5.905C220.21 5.935 220.195 5.965 220.165 5.995L220.705 6.94C222.655 10.21 224.305 13.6 225.655 17.11C227.005 20.62 228.16 24.07 229.12 27.46C229.36 28.21 229.645 29.02 229.975 29.89C230.335 30.73 230.665 31.54 230.965 32.32C231.295 33.07 231.565 33.76 231.775 34.39C231.985 34.99 232.09 35.425 232.09 35.695C232.09 35.905 232.045 36.04 231.955 36.1C231.865 36.13 231.745 36.145 231.595 36.145C230.815 34.195 230.08 32.275 229.39 30.385C228.7 28.525 228.025 26.65 227.365 24.76C227.965 26.65 228.595 28.525 229.255 30.385C229.945 32.275 230.635 34.195 231.325 36.145H231.01C230.83 36.145 230.71 36.235 230.65 36.415C230.71 36.475 230.785 36.64 230.875 36.91C230.965 37.15 231.055 37.405 231.145 37.675C231.235 37.975 231.31 38.275 231.37 38.575C231.43 38.875 231.46 39.1 231.46 39.25C231.46 39.91 231.265 40.24 230.875 40.24C230.665 40.24 230.5 40.195 230.38 40.105C230.26 40.015 230.125 39.895 229.975 39.745L229.525 39.295C229.345 39.115 229.12 38.935 228.85 38.755L224.53 26.335C225.16 28.285 225.775 30.235 226.375 32.185C227.005 34.135 227.65 36.055 228.31 37.945C227.83 37.375 227.38 36.685 226.96 35.875C226.57 35.065 226.195 34.21 225.835 33.31C225.505 32.41 225.19 31.495 224.89 30.565C224.59 29.605 224.29 28.705 223.99 27.865C223.99 27.925 223.99 27.985 223.99 28.045C224.02 28.075 224.035 28.12 224.035 28.18C224.035 28.66 223.885 29.02 223.585 29.26L223.18 29.665ZM222.91 24.985C222.97 24.985 223.06 24.97 223.18 24.94C223.3 24.88 223.39 24.85 223.45 24.85C222.46 22.36 221.47 19.945 220.48 17.605C219.52 15.265 218.455 13.015 217.285 10.855L217.015 11.125L217.69 12.34C218.74 14.26 219.685 16.24 220.525 18.28C221.365 20.32 222.16 22.42 222.91 24.58C222.04 22.24 221.095 19.915 220.075 17.605C219.085 15.265 218.02 13.15 216.88 11.26L216.7 11.35C215.68 12.4 214.72 13.66 213.82 15.13C212.95 16.6 212.125 18.1 211.345 19.63L210.175 22.465L210.94 22.645C211.39 22.765 211.825 22.9 212.245 23.05C212.695 23.17 213.085 23.305 213.415 23.455C214.075 23.785 214.945 24.04 216.025 24.22C217.105 24.4 218.155 24.58 219.175 24.76C220.225 24.91 221.125 25.09 221.875 25.3C222.655 25.48 223.045 25.75 223.045 26.11L217.555 25.48C217.885 25.54 218.29 25.615 218.77 25.705C219.25 25.765 219.73 25.84 220.21 25.93C220.72 26.02 221.215 26.11 221.695 26.2C222.175 26.26 222.58 26.32 222.91 26.38C222.91 26.47 222.895 26.56 222.865 26.65C222.865 26.71 222.865 26.77 222.865 26.83C222.865 26.89 222.895 26.935 222.955 26.965C223.045 26.965 223.135 26.98 223.225 27.01C223.345 27.01 223.45 27.04 223.54 27.1C223.63 27.13 223.72 27.22 223.81 27.37L222.91 24.985ZM213.145 15.355C213.205 15.355 213.22 15.4 213.19 15.49C213.19 15.55 213.205 15.58 213.235 15.58C213.295 15.58 213.475 15.37 213.775 14.95C214.075 14.53 214.42 14.05 214.81 13.51C215.2 12.97 215.575 12.46 215.935 11.98C216.295 11.5 216.55 11.185 216.7 11.035L216.475 10.72C215.845 11.32 215.26 12.025 214.72 12.835C214.18 13.645 213.655 14.485 213.145 15.355ZM217.69 10.495C218.65 12.115 219.535 13.81 220.345 15.58C221.125 17.32 221.86 19.06 222.55 20.8C221.98 19.06 221.29 17.32 220.48 15.58C219.64 13.81 218.725 12.115 217.735 10.495H217.69ZM224.575 17.245C225.505 19.645 226.42 22.09 227.32 24.58C226.48 22.15 225.595 19.75 224.665 17.38C223.795 15.04 222.79 12.685 221.65 10.315C222.73 12.595 223.705 14.905 224.575 17.245ZM217.96 9.505C218.35 9.595 218.62 9.685 218.77 9.775C218.92 9.865 219.025 9.91 219.085 9.91L219.13 9.775C219.16 9.775 219.1 9.76 218.95 9.73C218.8 9.7 218.68 9.67 218.59 9.64L218.68 9.46L218.14 9.28L217.96 9.505ZM215.755 9.055L216.115 10L216.07 9.055C216.01 9.055 215.935 9.04 215.845 9.01C215.785 8.98 215.725 8.965 215.665 8.965L215.755 9.055ZM216.925 10.36L216.61 10.585L216.88 10.945L217.15 10.675L216.925 10.36ZM217.555 10.27H217.6L217.375 9.955V10L217.555 10.27ZM247.184 33.175C247.004 33.175 246.824 33.265 246.644 33.445C246.014 33.685 245.354 33.895 244.664 34.075C244.004 34.225 243.314 34.3 242.594 34.3C240.554 34.3 239.024 33.715 238.004 32.545C236.984 31.345 236.474 29.62 236.474 27.37C236.474 26.29 236.519 25.21 236.609 24.13C236.699 23.08 236.759 22.105 236.789 21.205C236.699 22.135 236.594 23.065 236.474 23.995C236.324 24.985 236.249 26.02 236.249 27.1C236.249 27.64 236.294 28.33 236.384 29.17C236.504 30.01 236.774 30.835 237.194 31.645C237.614 32.425 238.259 33.115 239.129 33.715C239.999 34.285 241.199 34.57 242.729 34.57C243.449 34.57 244.139 34.495 244.799 34.345C245.489 34.165 246.149 33.955 246.779 33.715C246.359 34.225 245.789 34.63 245.069 34.93C244.379 35.23 243.554 35.38 242.594 35.38C241.364 35.38 240.164 35.125 238.994 34.615C237.854 34.105 236.984 33.25 236.384 32.05L236.654 31.555C236.114 30.595 235.814 29.74 235.754 28.99C235.694 28.21 235.634 27.445 235.574 26.695L236.339 18.82C236.489 17.47 236.594 16.12 236.654 14.77L236.519 14.68C236.279 16.09 236.084 17.44 235.934 18.73C235.784 19.99 235.664 21.235 235.574 22.465V21.295C235.754 19.915 235.919 18.565 236.069 17.245C236.219 15.895 236.414 14.53 236.654 13.15C236.894 11.77 237.194 10.33 237.554 8.83C237.944 7.33 238.454 5.725 239.084 4.015C239.924 2.875 240.419 1.75 240.569 0.639999C240.659 0.639999 240.749 0.654999 240.839 0.684998C240.929 0.714998 241.109 0.729998 241.379 0.729998C241.559 0.729998 241.709 0.774998 241.829 0.864999C241.979 0.924998 242.054 1.075 242.054 1.315C242.054 1.585 241.964 1.99 241.784 2.53C241.844 2.53 241.934 2.56 242.054 2.62C242.174 2.65 242.264 2.665 242.324 2.665C242.744 1.945 243.119 1.33 243.449 0.819999C243.809 0.309999 244.154 0.0549982 244.484 0.0549982C244.694 0.0549982 244.874 0.189998 245.024 0.459998C245.204 0.699999 245.294 1.105 245.294 1.675C245.234 2.755 245.054 3.775 244.754 4.735C244.484 5.695 244.184 6.625 243.854 7.525C243.524 8.425 243.194 9.34 242.864 10.27C242.564 11.2 242.339 12.175 242.189 13.195C242.009 14.365 241.829 15.565 241.649 16.795C241.469 17.995 241.304 19.195 241.154 20.395C241.004 21.595 240.854 22.75 240.704 23.86C240.584 24.97 240.494 26.005 240.434 26.965C240.434 27.835 240.569 28.735 240.839 29.665C240.989 29.905 241.124 30.085 241.244 30.205C241.364 30.295 241.574 30.34 241.874 30.34C242.234 30.34 242.624 30.295 243.044 30.205C243.494 30.115 243.884 30.07 244.214 30.07C244.424 30.07 244.574 30.1 244.664 30.16C244.754 30.22 244.829 30.325 244.889 30.475C244.469 30.715 244.019 30.895 243.539 31.015C243.059 31.135 242.609 31.195 242.189 31.195H241.559C241.439 31.195 241.334 31.195 241.244 31.195C241.574 31.255 241.994 31.285 242.504 31.285C243.284 31.285 244.079 31.105 244.889 30.745C244.889 31.015 244.979 31.24 245.159 31.42C245.249 31.39 245.459 31.285 245.789 31.105C246.119 30.925 246.404 30.835 246.644 30.835C247.364 30.835 247.724 31.135 247.724 31.735C247.724 31.825 247.694 31.96 247.634 32.14C247.574 32.32 247.424 32.665 247.184 33.175ZM235.259 27.145C235.259 26.935 235.259 26.665 235.259 26.335C235.289 26.005 235.319 25.675 235.349 25.345L235.439 24.31C235.469 23.95 235.499 23.635 235.529 23.365C235.499 23.815 235.469 24.385 235.439 25.075C235.439 25.735 235.439 26.23 235.439 26.56V28.36C235.439 28.6 235.439 28.855 235.439 29.125C235.469 29.395 235.499 29.65 235.529 29.89C235.409 29.41 235.334 28.945 235.304 28.495C235.274 28.015 235.259 27.565 235.259 27.145ZM239.669 26.965C239.669 26.275 239.714 25.6 239.804 24.94C239.894 24.28 239.969 23.605 240.029 22.915C239.879 23.605 239.759 24.28 239.669 24.94C239.609 25.6 239.549 26.275 239.489 26.965V27.595C239.489 27.805 239.504 28.03 239.534 28.27V27.955C239.534 27.805 239.549 27.64 239.579 27.46C239.609 27.28 239.639 27.115 239.669 26.965ZM235.529 23.32C235.529 23.26 235.529 23.215 235.529 23.185C235.559 23.155 235.574 23.125 235.574 23.095C235.574 23.215 235.559 23.29 235.529 23.32ZM270.732 50.05C270.792 48.37 270.837 46.705 270.867 45.055C270.897 43.435 270.912 41.71 270.912 39.88C270.912 39.1 270.897 38.32 270.867 37.54C270.837 36.79 270.792 36.055 270.732 35.335V40.285C270.732 41.935 270.702 43.57 270.642 45.19C270.612 46.84 270.507 48.46 270.327 50.05C270.177 49.78 270.042 49.495 269.922 49.195C269.802 48.925 269.712 48.625 269.652 48.295C269.712 47.485 269.742 46.735 269.742 46.045C269.772 45.385 269.787 44.65 269.787 43.84L270.327 43.57C270.237 42.94 270.177 42.295 270.147 41.635C270.117 41.005 270.102 40.375 270.102 39.745C270.102 39.055 270.102 38.38 270.102 37.72C270.132 37.09 270.147 36.43 270.147 35.74C270.147 34.9 270.117 34.075 270.057 33.265C270.027 32.425 269.937 31.585 269.787 30.745H269.652C269.712 32.005 269.757 33.25 269.787 34.48C269.847 35.71 269.877 36.94 269.877 38.17C269.877 38.71 269.862 39.25 269.832 39.79L269.787 40.96C269.727 38.08 269.622 35.26 269.472 32.5C269.352 29.56 269.142 26.545 268.842 23.455L269.022 19.72C268.692 19.69 268.347 19.675 267.987 19.675H266.952L266.817 18.64C266.817 18.49 266.922 18.355 267.132 18.235C267.342 18.115 267.762 18.055 268.392 18.055H268.842V17.515C267.852 17.395 267.072 17.185 266.502 16.885C265.962 16.585 265.692 16.27 265.692 15.94C265.692 15.64 265.962 15.385 266.502 15.175C267.042 14.935 267.732 14.755 268.572 14.635C269.442 14.485 270.387 14.38 271.407 14.32C272.427 14.26 273.417 14.23 274.377 14.23C275.427 14.23 276.552 14.26 277.752 14.32C278.982 14.38 280.212 14.53 281.442 14.77C282.672 15.01 283.857 15.385 284.997 15.895C286.167 16.375 287.217 17.065 288.147 17.965C289.077 18.835 289.842 19.945 290.442 21.295C291.072 22.615 291.477 24.235 291.657 26.155C291.657 27.775 291.297 29.11 290.577 30.16C289.887 31.18 289.047 32.005 288.057 32.635C287.067 33.265 286.032 33.715 284.952 33.985C283.902 34.255 283.032 34.435 282.342 34.525C281.652 34.675 280.857 34.855 279.957 35.065C279.057 35.245 278.292 35.335 277.662 35.335C276.972 35.335 276.567 35.26 276.447 35.11C276.327 34.96 276.267 34.765 276.267 34.525C277.617 34.465 278.967 34.36 280.317 34.21C281.667 34.03 283.017 33.73 284.367 33.31C283.017 33.64 281.667 33.895 280.317 34.075C278.967 34.225 277.617 34.33 276.267 34.39C276.267 34.21 276.252 34.03 276.222 33.85C276.192 33.64 276.102 33.535 275.952 33.535C275.652 33.535 275.412 34.015 275.232 34.975C275.082 35.935 274.962 37.075 274.872 38.395C274.812 39.745 274.767 41.125 274.737 42.535C274.737 43.945 274.737 45.115 274.737 46.045C274.737 46.465 274.752 46.9 274.782 47.35C274.842 47.83 274.872 48.235 274.872 48.565C274.872 48.865 274.827 49.12 274.737 49.33C274.647 49.54 274.392 49.645 273.972 49.645V43.975C273.912 44.935 273.867 45.88 273.837 46.81C273.837 47.74 273.837 48.685 273.837 49.645H273.027V50.005C273.027 50.275 273.072 50.47 273.162 50.59C272.832 51.16 272.457 51.445 272.037 51.445C271.707 51.445 271.452 51.355 271.272 51.175C271.122 50.995 270.897 50.755 270.597 50.455L270.732 50.05ZM275.097 31.285H275.727C276.777 31.285 277.977 31.225 279.327 31.105C280.707 30.985 281.997 30.76 283.197 30.43C284.397 30.1 285.402 29.635 286.212 29.035C287.052 28.435 287.472 27.655 287.472 26.695V26.335C287.472 26.035 287.442 25.705 287.382 25.345C287.352 24.985 287.232 24.64 287.022 24.31C287.052 24.46 287.127 24.76 287.247 25.21C287.367 25.66 287.427 26.035 287.427 26.335C287.427 27.265 287.097 28.03 286.437 28.63C285.807 29.2 284.997 29.665 284.007 30.025C283.047 30.355 281.982 30.595 280.812 30.745C279.672 30.865 278.577 30.925 277.527 30.925H276.627C276.327 30.925 276.027 30.91 275.727 30.88C276.147 30.55 276.687 30.325 277.347 30.205C278.037 30.055 278.757 29.935 279.507 29.845C280.257 29.755 280.992 29.665 281.712 29.575C282.432 29.485 283.047 29.335 283.557 29.125L283.827 29.665C284.877 29.155 285.612 28.66 286.032 28.18C286.482 27.67 286.707 26.98 286.707 26.11C286.707 24.73 286.317 23.515 285.537 22.465C284.787 21.415 283.767 20.71 282.477 20.35L282.342 20.62C283.452 21.04 284.412 21.73 285.222 22.69C286.032 23.65 286.437 24.805 286.437 26.155C286.437 26.875 286.272 27.445 285.942 27.865C285.642 28.225 285.162 28.555 284.502 28.855C285.042 28.615 285.447 28.315 285.717 27.955C286.047 27.535 286.272 27.07 286.392 26.56C286.392 25.3 286.092 24.235 285.492 23.365C284.892 22.495 284.052 21.805 282.972 21.295C281.892 20.755 280.587 20.38 279.057 20.17C277.557 19.93 275.892 19.81 274.062 19.81C274.302 21.1 274.437 22.51 274.467 24.04C274.527 25.54 274.632 27.01 274.782 28.45L275.097 31.285ZM270.552 24.4C270.612 24.34 270.672 24.085 270.732 23.635C270.792 23.185 270.837 22.705 270.867 22.195C270.927 21.655 270.972 21.16 271.002 20.71C271.062 20.23 271.122 19.945 271.182 19.855L270.597 19.81L270.552 24.4ZM284.277 28.945L284.502 28.855L284.277 28.945ZM323.032 35.605C322.792 35.155 322.372 34.705 321.772 34.255C321.172 33.775 320.452 33.31 319.612 32.86C318.772 32.41 317.872 31.975 316.912 31.555C315.952 31.135 315.007 30.73 314.077 30.34C313.147 29.92 312.277 29.53 311.467 29.17C310.897 28.93 310.402 28.69 309.982 28.45C310.852 28.96 311.767 29.425 312.727 29.845C313.837 30.355 314.947 30.88 316.057 31.42C317.197 31.96 318.292 32.53 319.342 33.13C320.392 33.73 321.352 34.42 322.222 35.2C321.352 34.96 320.257 34.57 318.937 34.03C317.617 33.46 316.267 32.845 314.887 32.185C313.537 31.495 312.217 30.805 310.927 30.115C309.667 29.425 308.647 28.825 307.867 28.315L308.182 27.91C307.342 27.34 306.487 26.68 305.617 25.93C304.747 25.18 304.072 24.355 303.592 23.455C303.262 24.865 303.067 26.215 303.007 27.505C302.947 28.795 302.917 30.025 302.917 31.195C302.917 31.615 303.022 32.02 303.232 32.41C303.442 32.77 303.547 33.115 303.547 33.445C303.547 33.895 303.337 34.165 302.917 34.255C302.677 33.685 302.497 33.115 302.377 32.545C302.257 31.975 302.167 31.405 302.107 30.835C302.107 31.435 302.137 32.02 302.197 32.59C302.287 33.19 302.437 33.79 302.647 34.39L301.972 34.66L302.377 35.2C302.317 35.53 302.182 35.845 301.972 36.145C301.792 36.415 301.507 36.55 301.117 36.55C300.637 36.55 300.247 36.295 299.947 35.785C299.677 35.245 299.452 34.615 299.272 33.895C299.122 33.145 299.017 32.395 298.957 31.645C298.927 30.865 298.912 30.22 298.912 29.71C298.912 28.69 298.912 27.685 298.912 26.695C298.942 25.705 298.987 24.7 299.047 23.68C298.897 24.64 298.807 25.615 298.777 26.605C298.777 27.595 298.777 28.585 298.777 29.575C298.777 30.625 298.837 31.705 298.957 32.815C299.077 33.925 299.257 34.99 299.497 36.01C299.107 35.65 298.807 35.245 298.597 34.795C298.417 34.345 298.267 33.88 298.147 33.4C298.057 32.89 297.982 32.38 297.922 31.87C297.892 31.36 297.862 30.865 297.832 30.385L298.372 30.25C298.252 29.8 298.177 29.35 298.147 28.9C298.117 28.42 298.102 27.94 298.102 27.46C298.102 26.41 298.177 25.39 298.327 24.4C298.477 23.38 298.552 22.345 298.552 21.295V20.755L298.507 19.63H298.237C298.177 21.07 298.087 22.51 297.967 23.95C297.877 25.39 297.817 26.845 297.787 28.315C297.757 28.015 297.742 27.73 297.742 27.46V26.605C297.742 24.415 297.847 22.27 298.057 20.17C298.297 18.04 298.537 15.895 298.777 13.735C298.837 13.045 299.017 12.415 299.317 11.845C299.617 11.245 299.857 10.63 300.037 10C300.157 10.09 300.307 10.15 300.487 10.18C300.667 10.18 300.832 10.195 300.982 10.225C301.132 10.225 301.267 10.27 301.387 10.36C301.507 10.45 301.567 10.6 301.567 10.81C301.567 10.93 301.552 11.05 301.522 11.17L301.432 11.53L301.837 11.665C302.047 11.335 302.317 11.02 302.647 10.72C302.977 10.42 303.352 10.27 303.772 10.27C304.102 10.27 304.342 10.405 304.492 10.675C304.642 10.945 304.717 11.23 304.717 11.53C304.717 11.71 304.687 12.085 304.627 12.655C304.597 13.225 304.537 13.885 304.447 14.635C304.387 15.385 304.312 16.195 304.222 17.065C304.132 17.905 304.042 18.7 303.952 19.45C303.892 20.2 303.832 20.845 303.772 21.385C303.712 21.895 303.682 22.21 303.682 22.33L304.762 19.9C304.672 20.17 304.582 20.395 304.492 20.575C304.432 20.755 304.372 20.935 304.312 21.115C304.252 21.295 304.162 21.49 304.042 21.7C303.952 21.91 303.817 22.18 303.637 22.51V23.14L305.122 19.765C305.602 19.765 306.067 19.765 306.517 19.765C306.997 19.735 307.477 19.675 307.957 19.585L308.407 19.495C307.747 19.495 307.222 19.495 306.832 19.495C306.472 19.465 306.127 19.42 305.797 19.36C306.997 19.36 308.182 19.345 309.352 19.315C310.552 19.255 311.767 19.225 312.997 19.225C314.077 19.225 315.142 19.195 316.192 19.135C317.272 19.075 318.232 18.865 319.072 18.505C319.942 18.145 320.647 17.59 321.187 16.84C321.727 16.09 321.997 15.025 321.997 13.645C321.997 12.235 321.817 11.095 321.457 10.225C321.097 9.355 320.572 8.68 319.882 8.2C319.222 7.69 318.382 7.36 317.362 7.21C316.342 7.03 315.187 6.94 313.897 6.94C311.257 6.94 308.602 7.06 305.932 7.3C303.262 7.54 300.652 7.99 298.102 8.65C298.042 8.41 297.997 8.2 297.967 8.02C297.937 7.81 297.862 7.63 297.742 7.48C297.742 7.3 297.907 7.135 298.237 6.985C298.567 6.835 298.942 6.715 299.362 6.625C299.782 6.535 300.172 6.46 300.532 6.4C300.922 6.34 301.177 6.295 301.297 6.265V5.725C301.087 5.755 300.727 5.785 300.217 5.815C299.707 5.845 299.152 5.86 298.552 5.86C297.742 5.86 296.992 5.815 296.302 5.725C295.612 5.605 295.267 5.38 295.267 5.05C295.267 4.69 295.657 4.345 296.437 4.015C297.247 3.685 298.267 3.385 299.497 3.115C300.727 2.815 302.077 2.56 303.547 2.35C305.017 2.14 306.427 1.96 307.777 1.81C309.157 1.63 310.372 1.51 311.422 1.45C312.502 1.36 313.252 1.315 313.672 1.315C315.832 1.315 317.782 1.54 319.522 1.99C321.262 2.41 322.732 3.115 323.932 4.105C325.162 5.095 326.092 6.4 326.722 8.02C327.382 9.61 327.712 11.575 327.712 13.915C327.712 15.865 327.337 17.53 326.587 18.91C325.867 20.26 324.892 21.37 323.662 22.24C322.432 23.08 321.022 23.71 319.432 24.13C317.842 24.52 316.192 24.715 314.482 24.715C314.002 24.715 313.522 24.7 313.042 24.67C312.592 24.64 312.127 24.61 311.647 24.58C311.977 24.79 312.517 25.075 313.267 25.435C314.047 25.795 314.902 26.2 315.832 26.65C316.792 27.1 317.782 27.58 318.802 28.09C319.852 28.57 320.797 29.05 321.637 29.53C322.477 29.98 323.167 30.415 323.707 30.835C324.247 31.225 324.517 31.54 324.517 31.78L324.292 32.05C323.302 31.33 322.282 30.7 321.232 30.16C320.182 29.62 319.102 29.11 317.992 28.63C316.912 28.15 315.817 27.685 314.707 27.235C313.657 26.785 312.607 26.26 311.557 25.66C312.577 26.26 313.597 26.785 314.617 27.235L317.812 28.675C318.892 29.155 319.942 29.665 320.962 30.205C322.012 30.715 323.017 31.33 323.977 32.05L323.392 32.59C323.602 32.74 323.842 32.95 324.112 33.22C324.412 33.46 324.682 33.73 324.922 34.03C325.192 34.33 325.417 34.645 325.597 34.975C325.777 35.275 325.867 35.56 325.867 35.83C325.867 36.22 325.687 36.415 325.327 36.415C324.967 36.415 324.577 36.31 324.157 36.1C323.737 35.89 323.362 35.725 323.032 35.605ZM313.222 19.495C312.622 19.495 311.992 19.51 311.332 19.54C310.702 19.54 310.057 19.54 309.397 19.54C310.147 19.57 310.927 19.615 311.737 19.675C312.547 19.705 313.372 19.72 314.212 19.72C315.262 19.72 316.282 19.66 317.272 19.54C318.292 19.39 319.192 19.105 319.972 18.685C320.752 18.235 321.367 17.635 321.817 16.885C322.297 16.105 322.537 15.085 322.537 13.825C322.537 13.405 322.507 13 322.447 12.61C322.387 12.22 322.312 11.815 322.222 11.395H321.952C322.132 12.115 322.222 12.85 322.222 13.6C322.222 14.95 321.982 16.015 321.502 16.795C321.022 17.575 320.377 18.175 319.567 18.595C318.757 18.985 317.797 19.24 316.687 19.36C315.607 19.45 314.452 19.495 313.222 19.495ZM305.257 20.485C306.457 20.545 307.672 20.59 308.902 20.62C310.162 20.62 311.452 20.62 312.772 20.62C313.552 20.62 314.332 20.605 315.112 20.575C315.892 20.515 316.642 20.41 317.362 20.26C317.032 20.32 316.702 20.35 316.372 20.35H315.427C315.067 20.35 314.632 20.35 314.122 20.35C313.612 20.32 313.057 20.29 312.457 20.26C311.857 20.23 311.227 20.215 310.567 20.215C309.907 20.185 309.262 20.17 308.632 20.17C307.942 20.17 307.312 20.185 306.742 20.215C306.172 20.245 305.677 20.335 305.257 20.485ZM303.547 23.95C304.147 24.73 304.747 25.465 305.347 26.155C305.977 26.815 306.682 27.445 307.462 28.045C306.742 27.535 306.007 26.92 305.257 26.2C304.537 25.48 303.967 24.73 303.547 23.95ZM310.207 23.59C310.807 23.65 311.407 23.695 312.007 23.725C312.577 23.755 313.117 23.785 313.627 23.815C313.207 23.785 312.787 23.74 312.367 23.68C311.887 23.59 311.407 23.545 310.927 23.545H310.567C310.447 23.545 310.327 23.56 310.207 23.59ZM305.122 20.485C305.092 20.575 305.002 20.755 304.852 21.025C304.732 21.295 304.597 21.595 304.447 21.925C304.327 22.225 304.207 22.51 304.087 22.78C303.967 23.05 303.907 23.23 303.907 23.32L303.997 23.23L305.122 20.62V20.485ZM309.802 24.445H309.667C310.087 24.775 310.567 25.09 311.107 25.39L309.802 24.445ZM304.267 23.68C304.327 23.83 304.417 24.01 304.537 24.22C304.687 24.4 304.867 24.595 305.077 24.805C304.897 24.595 304.747 24.385 304.627 24.175C304.507 23.935 304.417 23.71 304.357 23.5L304.267 23.68ZM309.577 28.225C309.667 28.285 309.742 28.33 309.802 28.36L309.577 28.225ZM340.204 9.91C340.234 10.06 340.399 10.135 340.699 10.135H340.789C340.969 10.135 341.089 10.15 341.149 10.18C342.709 10.66 344.254 11.365 345.784 12.295C347.344 13.195 348.739 14.29 349.969 15.58C351.229 16.84 352.234 18.28 352.984 19.9C353.764 21.52 354.154 23.26 354.154 25.12C354.154 26.74 353.839 28.3 353.209 29.8C352.579 31.3 351.709 32.605 350.599 33.715C351.739 32.725 352.639 31.495 353.299 30.025C353.989 28.525 354.334 26.92 354.334 25.21C354.334 23.29 353.929 21.505 353.119 19.855C352.309 18.175 351.274 16.675 350.014 15.355C348.754 14.035 347.344 12.91 345.784 11.98C344.254 11.02 342.754 10.285 341.284 9.775C342.424 9.775 343.579 10.03 344.749 10.54C345.949 11.05 347.089 11.725 348.169 12.565C349.249 13.375 350.239 14.32 351.139 15.4C352.069 16.45 352.849 17.53 353.479 18.64L353.164 19.09C353.764 19.99 354.214 20.965 354.514 22.015C354.844 23.065 355.009 24.145 355.009 25.255C355.009 27.385 354.544 29.26 353.614 30.88C352.714 32.47 351.559 33.805 350.149 34.885C348.769 35.935 347.239 36.73 345.559 37.27C343.909 37.81 342.349 38.08 340.879 38.08C340.039 38.08 339.184 37.99 338.314 37.81C337.474 37.63 336.619 37.33 335.749 36.91V37.18C336.589 37.66 337.444 37.99 338.314 38.17C339.214 38.35 340.099 38.44 340.969 38.44C343.129 38.44 345.244 37.96 347.314 37C349.414 36.07 351.184 34.75 352.624 33.04C351.244 34.81 349.519 36.19 347.449 37.18C345.409 38.17 343.279 38.665 341.059 38.665C338.779 38.665 336.934 38.215 335.524 37.315C334.114 36.445 333.004 35.365 332.194 34.075C331.414 32.785 330.889 31.42 330.619 29.98C330.349 28.54 330.214 27.25 330.214 26.11C330.214 24.58 330.409 23.08 330.799 21.61C331.219 20.14 331.849 18.79 332.689 17.56C333.529 16.33 334.609 15.28 335.929 14.41C337.249 13.51 338.839 12.88 340.699 12.52L339.394 12.205C338.764 12.055 338.314 11.875 338.044 11.665C337.774 11.455 337.639 11.275 337.639 11.125C337.639 10.885 337.894 10.63 338.404 10.36C338.944 10.06 339.544 9.91 340.204 9.91ZM338.179 15.58C338.989 15.28 339.769 15.13 340.519 15.13C341.269 15.13 341.839 15.25 342.229 15.49C342.649 15.7 342.859 15.925 342.859 16.165C342.859 16.315 342.679 16.48 342.319 16.66C341.989 16.84 341.554 17.095 341.014 17.425C340.504 17.725 339.934 18.115 339.304 18.595C338.704 19.075 338.134 19.69 337.594 20.44C337.084 21.16 336.649 22.045 336.289 23.095C335.959 24.145 335.794 25.375 335.794 26.785C335.794 28.855 336.259 30.415 337.189 31.465C338.119 32.515 339.409 33.04 341.059 33.04C342.109 33.04 343.174 32.86 344.254 32.5C345.364 32.14 346.354 31.63 347.224 30.97C348.124 30.31 348.844 29.5 349.384 28.54C349.954 27.58 350.239 26.5 350.239 25.3C350.239 24.4 350.074 23.5 349.744 22.6C349.444 21.7 349.009 20.845 348.439 20.035C347.899 19.195 347.239 18.415 346.459 17.695C345.709 16.975 344.884 16.36 343.984 15.85C343.114 15.37 342.394 15.01 341.824 14.77C341.284 14.5 340.894 14.245 340.654 14.005C340.414 14.125 340.069 14.275 339.619 14.455C339.199 14.605 338.629 14.845 337.909 15.175L338.179 15.58ZM341.194 13.465C342.574 13.915 343.894 14.59 345.154 15.49C346.234 16.3 347.224 17.185 348.124 18.145C347.254 17.125 346.309 16.21 345.289 15.4C344.119 14.44 342.814 13.69 341.374 13.15L341.194 13.465ZM349.924 28.81C349.474 29.77 348.844 30.625 348.034 31.375C348.574 31.015 349.024 30.58 349.384 30.07C349.774 29.56 350.089 29.05 350.329 28.54C350.569 28.03 350.749 27.565 350.869 27.145C350.959 26.755 351.034 26.44 351.094 26.2C350.764 26.98 350.374 27.85 349.924 28.81ZM352.939 32.68C352.909 32.74 352.864 32.8 352.804 32.86C352.774 32.89 352.744 32.905 352.714 32.905C352.684 32.905 352.759 32.755 352.939 32.455C353.119 32.125 353.329 31.75 353.569 31.33C353.839 30.88 354.094 30.415 354.334 29.935C354.544 29.575 354.694 29.26 354.784 28.99C354.364 30.28 353.749 31.51 352.939 32.68ZM355.459 25.39C355.459 25.87 355.429 26.35 355.369 26.83C355.309 27.28 355.204 27.7 355.054 28.09C355.264 27.34 355.369 26.5 355.369 25.57C355.369 24.88 355.309 24.205 355.189 23.545C355.099 22.975 354.979 22.42 354.829 21.88C354.979 22.42 355.114 22.96 355.234 23.5C355.384 24.1 355.459 24.73 355.459 25.39ZM341.194 12.745L340.789 12.565C340.759 12.625 340.714 12.685 340.654 12.745C340.594 12.805 340.564 12.865 340.564 12.925C340.564 12.985 340.594 13.075 340.654 13.195C340.744 13.285 340.819 13.36 340.879 13.42L341.194 12.745ZM348.394 18.46C348.304 18.34 348.214 18.235 348.124 18.145C348.214 18.265 348.304 18.37 348.394 18.46ZM354.784 28.99C354.814 28.93 354.829 28.87 354.829 28.81C354.829 28.87 354.814 28.93 354.784 28.99ZM354.874 28.72C354.844 28.75 354.829 28.78 354.829 28.81C354.829 28.78 354.844 28.75 354.874 28.72ZM358.592 36.775C359.312 37.135 360.047 37.495 360.797 37.855C361.547 38.215 362.342 38.395 363.182 38.395C364.052 38.395 364.817 38.14 365.477 37.63C366.137 37.12 366.707 36.475 367.187 35.695C367.667 34.885 368.057 33.97 368.357 32.95C368.687 31.93 368.957 30.925 369.167 29.935C369.377 28.915 369.527 27.955 369.617 27.055C369.647 26.725 369.677 26.425 369.707 26.155C369.677 26.395 369.647 26.65 369.617 26.92C369.497 27.79 369.332 28.735 369.122 29.755C368.912 30.745 368.657 31.75 368.357 32.77C368.057 33.76 367.682 34.66 367.232 35.47C366.782 36.28 366.257 36.94 365.657 37.45C365.057 37.96 364.352 38.215 363.542 38.215C362.792 38.215 362.057 38.065 361.337 37.765C360.647 37.495 360.002 37.165 359.402 36.775C360.092 36.775 360.752 36.865 361.382 37.045C362.012 37.225 362.672 37.315 363.362 37.315C363.962 37.315 364.427 37.195 364.757 36.955C365.117 36.715 365.462 36.37 365.792 35.92L366.422 35.965C367.082 34.705 367.622 33.31 368.042 31.78C368.462 30.25 368.792 28.675 369.032 27.055C369.272 25.435 369.437 23.83 369.527 22.24C369.617 20.62 369.662 19.105 369.662 17.695V16.3C369.662 15.82 369.647 15.34 369.617 14.86L369.482 15.04C369.422 16.54 369.362 18.205 369.302 20.035C369.242 21.835 369.107 23.65 368.897 25.48C368.717 27.31 368.417 29.08 367.997 30.79C367.607 32.5 367.037 34.015 366.287 35.335C367.187 33.655 367.832 31.735 368.222 29.575C368.612 27.385 368.867 25.135 368.987 22.825C369.137 20.515 369.227 18.22 369.257 15.94C369.287 13.63 369.392 11.515 369.572 9.595C367.892 9.415 366.167 9.22 364.397 9.01C362.657 8.8 360.947 8.695 359.267 8.695C359.267 8.395 359.252 8.17 359.222 8.02C359.222 7.87 359.222 7.72 359.222 7.57C359.222 7.3 359.432 7.135 359.852 7.075C360.272 7.015 360.572 6.985 360.752 6.985H360.842L361.877 7.03V6.49C361.697 6.46 361.382 6.415 360.932 6.355C360.512 6.265 360.062 6.145 359.582 5.995C359.132 5.845 358.727 5.665 358.367 5.455C358.037 5.245 357.872 5.005 357.872 4.735C357.872 4.465 358.142 4.255 358.682 4.105C359.252 3.955 359.882 3.835 360.572 3.745C361.262 3.655 361.922 3.61 362.552 3.61C363.182 3.58 363.587 3.565 363.767 3.565C365.387 3.565 366.947 3.655 368.447 3.835C369.947 3.985 371.522 4.225 373.172 4.555L375.377 7.705C375.167 8.785 375.017 10.12 374.927 11.71C374.837 13.27 374.762 14.965 374.702 16.795C374.642 18.625 374.552 20.53 374.432 22.51C374.342 24.49 374.147 26.425 373.847 28.315C373.577 30.205 373.172 32.005 372.632 33.715C372.122 35.425 371.432 36.925 370.562 38.215C369.692 39.505 368.597 40.525 367.277 41.275C365.987 42.055 364.427 42.445 362.597 42.445C361.817 42.445 360.977 42.295 360.077 41.995C359.207 41.725 358.487 41.305 357.917 40.735L358.052 40.375C358.832 40.765 359.627 41.065 360.437 41.275C361.247 41.515 362.087 41.635 362.957 41.635C363.977 41.635 364.982 41.425 365.972 41.005C365.042 41.335 364.097 41.5 363.137 41.5C362.267 41.5 361.442 41.38 360.662 41.14C359.882 40.9 359.102 40.6 358.322 40.24L358.637 39.7C358.487 39.61 358.277 39.475 358.007 39.295C357.737 39.145 357.482 38.965 357.242 38.755C357.002 38.575 356.792 38.365 356.612 38.125C356.432 37.915 356.342 37.72 356.342 37.54C356.342 37.24 356.522 37.045 356.882 36.955C357.242 36.835 357.527 36.775 357.737 36.775H358.592ZM398.412 22.375C397.242 21.955 396.027 21.685 394.767 21.565C393.567 21.415 392.337 21.28 391.077 21.16C392.217 21.34 393.387 21.505 394.587 21.655C395.847 21.805 397.032 22.135 398.142 22.645C398.022 22.765 397.902 22.87 397.782 22.96C397.662 23.05 397.542 23.095 397.422 23.095C397.002 23.095 396.597 23.05 396.207 22.96C395.817 22.84 395.397 22.78 394.947 22.78V22.24C394.797 22.27 394.587 22.285 394.317 22.285C393.567 22.285 392.832 22.18 392.112 21.97C391.392 21.76 390.657 21.655 389.907 21.655C389.517 21.655 389.142 21.7 388.782 21.79V21.97C389.742 22.03 390.717 22.135 391.707 22.285C392.727 22.405 393.762 22.57 394.812 22.78C393.852 22.63 392.817 22.495 391.707 22.375C390.627 22.255 389.607 22.195 388.647 22.195C388.257 22.195 387.882 22.21 387.522 22.24C387.192 22.24 386.862 22.255 386.532 22.285C386.532 22.915 386.547 23.65 386.577 24.49C386.607 25.33 386.667 26.155 386.757 26.965C386.847 27.745 386.952 28.435 387.072 29.035C387.192 29.635 387.342 30.025 387.522 30.205L387.927 31.015C388.287 32.125 389.487 32.68 391.527 32.68C391.977 32.68 392.517 32.62 393.147 32.5C393.777 32.38 394.407 32.245 395.037 32.095C395.697 31.915 396.312 31.765 396.882 31.645C397.482 31.525 397.992 31.465 398.412 31.465C398.832 31.465 399.072 31.525 399.132 31.645C399.192 31.765 399.222 31.93 399.222 32.14C397.962 32.29 396.747 32.515 395.577 32.815C394.557 33.085 393.567 33.295 392.607 33.445C393.567 33.295 394.542 33.115 395.532 32.905C396.702 32.635 397.887 32.425 399.087 32.275C399.027 32.455 398.997 32.575 398.997 32.635C398.997 32.815 399.072 32.965 399.222 33.085L399.852 32.995C400.032 32.965 400.212 32.95 400.392 32.95C400.572 32.92 400.737 32.875 400.887 32.815C401.427 32.965 401.802 33.13 402.012 33.31C402.252 33.49 402.372 33.685 402.372 33.895C402.372 34.285 402.177 34.555 401.787 34.705C401.427 34.855 401.082 35.095 400.752 35.425H400.572C399.702 35.425 398.862 35.5 398.052 35.65C397.242 35.77 396.432 35.905 395.622 36.055C394.842 36.205 394.032 36.355 393.192 36.505C392.382 36.625 391.542 36.685 390.672 36.685H390.042H389.772C390.342 36.745 390.957 36.775 391.617 36.775C392.457 36.775 393.237 36.73 393.957 36.64C394.707 36.55 395.427 36.445 396.117 36.325C396.807 36.205 397.467 36.1 398.097 36.01C398.757 35.92 399.417 35.875 400.077 35.875C399.597 36.115 399.012 36.355 398.322 36.595C397.632 36.805 396.867 36.985 396.027 37.135C395.187 37.315 394.317 37.45 393.417 37.54C392.517 37.66 391.632 37.72 390.762 37.72C390.162 37.72 389.577 37.69 389.007 37.63C388.437 37.57 387.822 37.375 387.162 37.045L387.117 36.55C386.697 36.4 386.247 36.13 385.767 35.74C385.317 35.32 384.897 34.885 384.507 34.435C384.117 33.985 383.787 33.565 383.517 33.175C383.247 32.785 383.112 32.53 383.112 32.41L382.977 32.005C382.707 31.435 382.482 30.805 382.302 30.115C382.152 29.425 382.032 28.735 381.942 28.045C381.852 27.325 381.777 26.62 381.717 25.93C381.657 25.24 381.612 24.595 381.582 23.995C381.522 23.005 381.477 22.015 381.447 21.025C381.417 20.005 381.402 18.985 381.402 17.965C381.402 16.945 381.402 15.925 381.402 14.905C381.432 13.855 381.447 12.805 381.447 11.755H381.312C381.162 12.895 381.072 13.99 381.042 15.04C381.042 16.09 381.042 17.14 381.042 18.19V19.945C381.042 22.045 381.147 24.235 381.357 26.515C381.597 28.795 382.182 31.015 383.112 33.175C382.422 32.005 381.987 30.85 381.807 29.71C381.627 28.54 381.462 27.46 381.312 26.47C381.132 25.18 380.997 23.935 380.907 22.735C380.847 21.535 380.817 20.305 380.817 19.045V18.1C380.817 16.36 380.862 14.59 380.952 12.79C381.042 10.99 381.312 9.085 381.762 7.075C381.582 7.075 381.492 6.985 381.492 6.805C381.492 6.625 381.582 6.37 381.762 6.04C381.972 5.71 382.227 5.395 382.527 5.095C382.827 4.765 383.157 4.495 383.517 4.285C383.907 4.045 384.282 3.925 384.642 3.925H395.352C396.462 4.135 397.542 4.315 398.592 4.465C399.672 4.585 400.797 4.675 401.967 4.735L401.922 5.77C401.922 5.95 401.832 6.1 401.652 6.22C401.502 6.31 401.142 6.355 400.572 6.355C400.392 6.355 400.167 6.355 399.897 6.355C399.657 6.325 399.387 6.295 399.087 6.265V6.67C400.317 6.94 401.277 7.27 401.967 7.66C402.687 8.05 403.047 8.425 403.047 8.785C403.047 9.205 402.642 9.46 401.832 9.55C401.052 9.64 400.002 9.685 398.682 9.685C397.002 9.685 395.202 9.685 393.282 9.685C391.392 9.655 389.562 9.565 387.792 9.415H387.027C386.877 10.555 386.772 11.725 386.712 12.925C386.652 14.125 386.607 15.355 386.577 16.615C387.057 16.615 387.522 16.6 387.972 16.57C388.452 16.51 388.947 16.48 389.457 16.48C389.877 16.48 390.357 16.525 390.897 16.615C391.467 16.675 392.052 16.765 392.652 16.885C393.282 17.005 393.897 17.155 394.497 17.335C395.127 17.485 395.697 17.65 396.207 17.83C396.297 17.86 396.402 17.875 396.522 17.875H397.287C397.677 17.875 397.932 17.935 398.052 18.055C398.202 18.175 398.277 18.415 398.277 18.775C397.767 18.775 397.287 18.745 396.837 18.685C396.387 18.625 395.952 18.565 395.532 18.505C395.952 18.655 396.387 18.775 396.837 18.865C397.287 18.925 397.767 18.985 398.277 19.045C398.217 19.195 398.172 19.33 398.142 19.45C398.142 19.57 398.142 19.675 398.142 19.765C398.442 19.825 398.637 19.975 398.727 20.215C398.847 20.425 398.907 20.665 398.907 20.935C398.907 21.325 398.817 21.64 398.637 21.88C398.487 22.09 398.412 22.255 398.412 22.375ZM382.572 27.46C382.692 28.18 382.827 28.96 382.977 29.8C383.157 30.61 383.412 31.42 383.742 32.23C384.102 33.01 384.582 33.745 385.182 34.435C385.662 35.005 386.292 35.485 387.072 35.875C386.172 35.395 385.437 34.735 384.867 33.895C384.207 32.875 383.682 31.735 383.292 30.475C382.932 29.215 382.662 27.88 382.482 26.47C382.332 25.06 382.212 23.71 382.122 22.42C382.152 23.23 382.197 24.055 382.257 24.895C382.317 25.735 382.422 26.59 382.572 27.46ZM393.597 18.28C394.107 18.37 394.647 18.445 395.217 18.505C394.677 18.355 394.167 18.25 393.687 18.19C393.207 18.1 392.727 17.995 392.247 17.875C392.637 18.055 393.087 18.19 393.597 18.28ZM386.217 36.73C385.827 36.55 385.482 36.34 385.182 36.1C384.972 35.92 384.777 35.74 384.597 35.56C384.777 35.74 384.987 35.905 385.227 36.055C385.557 36.295 385.887 36.52 386.217 36.73ZM387.567 36.1L387.162 35.92L387.567 36.1ZM427.581 34.615C426.261 35.155 424.896 35.575 423.486 35.875C422.106 36.175 420.696 36.325 419.256 36.325C417.936 36.325 416.646 36.175 415.386 35.875C414.126 35.575 412.971 35.095 411.921 34.435C410.871 33.775 409.941 32.92 409.131 31.87C408.351 30.79 407.751 29.5 407.331 28C407.421 29.32 407.781 30.46 408.411 31.42C409.041 32.35 409.821 33.16 410.751 33.85C411.711 34.51 412.761 35.05 413.901 35.47C415.041 35.89 416.136 36.235 417.186 36.505C417.336 36.535 417.546 36.55 417.816 36.55C419.586 36.55 421.191 36.4 422.631 36.1C424.071 35.8 425.541 35.485 427.041 35.155C426.561 35.545 425.976 35.89 425.286 36.19C424.626 36.46 423.891 36.7 423.081 36.91C422.301 37.09 421.476 37.225 420.606 37.315C419.736 37.435 418.866 37.495 417.996 37.495H417.501C417.351 37.495 417.201 37.48 417.051 37.45L416.736 36.865C415.656 36.745 414.531 36.475 413.361 36.055C412.191 35.635 411.111 35.05 410.121 34.3C409.161 33.52 408.351 32.575 407.691 31.465C407.061 30.355 406.746 29.065 406.746 27.595C406.746 26.365 406.911 25.165 407.241 23.995C407.571 22.825 408.006 21.685 408.546 20.575C408.516 20.605 408.471 20.62 408.411 20.62C408.321 20.62 408.276 20.56 408.276 20.44C407.736 21.52 407.271 22.645 406.881 23.815C406.521 24.955 406.341 26.2 406.341 27.55C406.341 28.99 406.671 30.265 407.331 31.375C407.991 32.485 408.771 33.43 409.671 34.21C410.601 34.96 411.546 35.575 412.506 36.055C413.376 36.475 414.096 36.775 414.666 36.955C413.736 36.685 412.791 36.295 411.831 35.785C410.811 35.245 409.881 34.57 409.041 33.76C408.231 32.92 407.556 31.96 407.016 30.88C406.476 29.77 406.206 28.555 406.206 27.235C406.206 25.345 406.551 23.575 407.241 21.925C407.931 20.275 408.846 18.85 409.986 17.65C411.126 16.42 412.431 15.46 413.901 14.77C415.401 14.05 416.946 13.69 418.536 13.69C418.806 13.63 419.136 13.6 419.526 13.6C419.946 13.57 420.291 13.555 420.561 13.555C421.521 13.765 422.481 14.02 423.441 14.32C424.431 14.62 425.406 15.04 426.366 15.58C426.246 15.64 426.156 15.73 426.096 15.85C426.066 15.94 426.036 16.06 426.006 16.21C425.976 16.33 425.916 16.435 425.826 16.525C425.766 16.615 425.646 16.66 425.466 16.66C425.316 16.66 425.091 16.615 424.791 16.525C424.491 16.435 424.071 16.3 423.531 16.12C423.441 16.21 423.396 16.345 423.396 16.525C424.116 16.885 424.611 17.305 424.881 17.785C425.151 18.235 425.286 18.67 425.286 19.09C425.286 19.3 425.061 19.48 424.611 19.63C424.221 19.63 423.606 19.555 422.766 19.405C421.956 19.255 421.041 19.18 420.021 19.18C419.571 19.18 419.076 19.21 418.536 19.27C417.996 19.3 417.456 19.39 416.916 19.54C416.376 19.66 415.866 19.855 415.386 20.125C414.906 20.365 414.516 20.695 414.216 21.115C413.856 21.595 413.526 22.135 413.226 22.735C412.926 23.335 412.656 23.95 412.416 24.58C412.176 25.18 411.981 25.765 411.831 26.335C411.711 26.905 411.651 27.415 411.651 27.865C411.651 28.285 411.846 28.765 412.236 29.305C412.626 29.815 413.121 30.31 413.721 30.79C414.351 31.24 415.056 31.63 415.836 31.96C416.646 32.29 417.456 32.455 418.266 32.455C418.656 32.455 419.121 32.395 419.661 32.275C420.231 32.155 420.801 32.02 421.371 31.87C421.971 31.69 422.556 31.54 423.126 31.42C423.696 31.3 424.176 31.24 424.566 31.24C424.926 31.24 425.151 31.285 425.241 31.375C425.361 31.435 425.421 31.57 425.421 31.78C424.731 32.02 424.011 32.26 423.261 32.5C422.781 32.65 422.316 32.8 421.866 32.95L423.261 32.59C423.981 32.38 424.701 32.155 425.421 31.915C425.421 32.065 425.421 32.2 425.421 32.32C425.451 32.44 425.541 32.575 425.691 32.725L426.141 32.545C426.381 32.455 426.636 32.335 426.906 32.185C427.506 32.185 427.911 32.245 428.121 32.365C428.361 32.485 428.481 32.665 428.481 32.905C428.481 33.055 428.451 33.19 428.391 33.31C428.361 33.4 428.301 33.505 428.211 33.625C428.151 33.715 428.061 33.835 427.941 33.985C427.821 34.135 427.701 34.345 427.581 34.615ZM411.246 29.215C411.486 29.755 411.846 30.28 412.326 30.79C412.806 31.27 413.346 31.705 413.946 32.095C414.576 32.455 415.236 32.755 415.926 32.995C416.586 33.235 417.246 33.37 417.906 33.4C417.306 33.34 416.676 33.19 416.016 32.95C415.326 32.71 414.666 32.41 414.036 32.05C413.436 31.66 412.881 31.225 412.371 30.745C411.891 30.265 411.516 29.755 411.246 29.215ZM421.596 32.995C421.686 32.965 421.776 32.95 421.866 32.95C421.776 32.95 421.686 32.965 421.596 32.995ZM414.846 37C414.786 37 414.726 36.985 414.666 36.955C414.726 36.985 414.786 37 414.846 37ZM448.83 14.5C448.56 14.5 448.185 14.545 447.705 14.635C447.255 14.725 446.79 14.83 446.31 14.95C445.86 15.07 445.44 15.19 445.05 15.31C444.69 15.43 444.465 15.52 444.375 15.58C445.155 15.46 445.875 15.325 446.535 15.175C447.195 14.995 447.915 14.905 448.695 14.905C448.545 15.175 448.35 15.385 448.11 15.535C447.87 15.685 447.6 15.805 447.3 15.895C447.03 15.955 446.73 16.015 446.4 16.075C446.07 16.105 445.725 16.165 445.365 16.255L445.05 15.85C444.48 16.06 444.045 16.195 443.745 16.255C443.445 16.285 443.13 16.3 442.8 16.3C442.44 16.3 442.065 16.3 441.675 16.3C441.315 16.27 440.91 16.255 440.46 16.255C440.46 16.405 440.445 16.525 440.415 16.615C441.105 16.615 441.69 16.615 442.17 16.615C442.65 16.585 443.235 16.525 443.925 16.435C443.265 16.555 442.68 16.645 442.17 16.705C441.69 16.765 441.105 16.795 440.415 16.795C440.295 17.485 440.19 18.16 440.1 18.82C440.01 19.48 439.965 20.125 439.965 20.755C439.965 21.115 439.98 21.535 440.01 22.015C440.04 22.495 440.07 22.99 440.1 23.5C440.16 23.98 440.205 24.445 440.235 24.895C440.265 25.315 440.28 25.63 440.28 25.84V28.54C440.43 29.14 440.865 29.59 441.585 29.89C442.305 30.19 443.34 30.34 444.69 30.34H446.13C446.64 30.34 446.985 30.4 447.165 30.52C447.375 30.61 447.48 30.745 447.48 30.925C447.48 31.075 447.36 31.165 447.12 31.195C446.88 31.195 446.64 31.195 446.4 31.195C445.53 31.195 444.615 31.135 443.655 31.015C442.755 30.895 441.87 30.76 441 30.61C441.87 30.82 442.785 31.015 443.745 31.195C444.735 31.345 445.695 31.42 446.625 31.42H447.03C447.15 31.42 447.285 31.405 447.435 31.375C447.435 31.525 447.435 31.66 447.435 31.78C447.465 31.9 447.51 32.035 447.57 32.185L447.93 32.095C448.02 32.065 448.125 32.05 448.245 32.05C448.365 32.02 448.455 31.975 448.515 31.915C449.475 32.005 449.955 32.335 449.955 32.905C449.955 33.235 449.865 33.505 449.685 33.715C449.505 33.925 449.28 34.09 449.01 34.21C448.74 34.33 448.44 34.42 448.11 34.48C447.78 34.51 447.465 34.525 447.165 34.525C446.115 34.525 445.08 34.465 444.06 34.345C443.07 34.195 442.095 34.045 441.135 33.895C441.975 34.195 443.04 34.435 444.33 34.615C445.62 34.795 446.925 34.885 448.245 34.885C447.915 35.095 447.525 35.26 447.075 35.38C446.625 35.5 446.16 35.56 445.68 35.56L442.44 35.155C442.02 35.095 441.69 35.035 441.45 34.975C441.24 34.915 441.03 34.855 440.82 34.795C440.61 34.705 440.37 34.615 440.1 34.525C439.86 34.435 439.515 34.33 439.065 34.21V33.715C438.285 33.505 437.655 33.145 437.175 32.635C436.695 32.125 436.32 31.57 436.05 30.97C435.78 30.37 435.6 29.77 435.51 29.17C435.42 28.54 435.375 27.985 435.375 27.505C435.375 26.995 435.375 26.53 435.375 26.11C435.405 25.66 435.42 25.21 435.42 24.76C435.42 24.43 435.405 24.01 435.375 23.5C435.375 22.99 435.36 22.45 435.33 21.88C435.3 21.31 435.27 20.725 435.24 20.125C435.24 19.525 435.24 18.955 435.24 18.415C435.24 18.085 435.24 17.77 435.24 17.47C435.27 17.17 435.3 16.9 435.33 16.66H434.88C434.85 16.87 434.835 17.11 434.835 17.38V18.19C434.835 19.06 434.85 19.93 434.88 20.8C434.91 21.64 434.925 22.42 434.925 23.14C434.955 23.86 434.985 24.49 435.015 25.03C435.045 25.54 435.06 25.915 435.06 26.155V27.955V28.315C434.97 27.505 434.88 26.35 434.79 24.85C434.7 23.11 434.655 21.19 434.655 19.09V18.28C434.655 17.95 434.655 17.635 434.655 17.335C434.685 17.035 434.73 16.81 434.79 16.66L433.26 16.57C432.93 16.36 432.6 16.195 432.27 16.075C431.94 15.955 431.64 15.895 431.37 15.895V14.995C431.37 14.815 431.385 14.665 431.415 14.545C431.475 14.395 431.625 14.32 431.865 14.32C431.925 14.32 432.075 14.35 432.315 14.41V13.87C431.985 13.69 431.715 13.45 431.505 13.15C431.295 12.82 431.19 12.49 431.19 12.16C431.19 11.38 431.745 10.99 432.855 10.99C433.275 10.99 433.71 11.02 434.16 11.08C434.61 11.14 435.075 11.185 435.555 11.215C435.675 10.555 435.78 9.97 435.87 9.46C435.96 8.92 436.05 8.41 436.14 7.93C436.23 7.42 436.335 6.925 436.455 6.445C436.575 5.935 436.725 5.41 436.905 4.87C437.175 4.27 437.385 3.625 437.535 2.935C437.685 2.215 437.79 1.51 437.85 0.819999L438.795 0.864999C438.945 0.864999 439.065 0.909999 439.155 0.999999C439.275 1.09 439.335 1.3 439.335 1.63C439.335 1.9 439.29 2.26 439.2 2.71L439.74 2.845C439.98 2.035 440.265 1.375 440.595 0.864999C440.955 0.354998 441.3 0.0999976 441.63 0.0999976C442.14 0.0999976 442.455 0.744998 442.575 2.035V2.845C442.575 3.625 442.515 4.36 442.395 5.05C442.305 5.71 442.185 6.37 442.035 7.03C441.885 7.69 441.735 8.365 441.585 9.055C441.435 9.745 441.3 10.495 441.18 11.305C441.84 11.395 442.485 11.44 443.115 11.44C443.415 11.44 443.715 11.44 444.015 11.44C444.315 11.41 444.615 11.395 444.915 11.395C445.215 11.395 445.53 11.275 445.86 11.035C446.19 10.795 446.49 10.675 446.76 10.675C447 10.675 447.18 10.75 447.3 10.9C447.42 11.05 447.48 11.215 447.48 11.395C446.94 11.545 446.4 11.71 445.86 11.89C445.35 12.04 444.855 12.19 444.375 12.34C444.855 12.28 445.365 12.175 445.905 12.025C446.445 11.845 447.015 11.68 447.615 11.53C447.615 11.68 447.615 11.815 447.615 11.935C447.645 12.055 447.69 12.19 447.75 12.34C447.81 12.34 447.885 12.325 447.975 12.295C448.155 12.235 448.26 12.205 448.29 12.205C448.59 12.355 448.785 12.55 448.875 12.79C448.965 13 449.01 13.24 449.01 13.51C449.01 13.72 448.98 13.915 448.92 14.095C448.86 14.245 448.83 14.38 448.83 14.5ZM436.905 31.105C436.485 30.295 436.26 29.5 436.23 28.72C436.2 27.94 436.155 27.205 436.095 26.515L435.69 19.675L435.555 20.485C435.555 22.495 435.615 24.325 435.735 25.975C435.885 27.595 436.095 28.855 436.365 29.755C436.365 30.025 436.35 30.205 436.32 30.295C436.32 30.385 436.32 30.46 436.32 30.52C436.32 30.58 436.35 30.655 436.41 30.745C436.5 30.835 436.665 30.955 436.905 31.105ZM439.47 28.675C439.41 28.435 439.38 28.18 439.38 27.91V25.705C439.35 26.005 439.32 26.305 439.29 26.605C439.26 26.875 439.245 27.16 439.245 27.46C439.245 28.24 439.29 28.84 439.38 29.26C439.47 29.62 439.65 29.92 439.92 30.16C439.77 29.98 439.665 29.785 439.605 29.575C439.575 29.335 439.53 29.035 439.47 28.675ZM435.105 28.63L435.06 28.315L435.105 28.63ZM440.01 30.205C439.98 30.175 439.95 30.16 439.92 30.16C439.95 30.16 439.98 30.175 440.01 30.205Z" fill="#266796"/>
</svg>
