<svg width="188" height="32" viewBox="0 0 188 32" fill="none" xmlns="http://www.w3.org/2000/svg">
<path d="M9.0415 10.4556V15.1138C10.4038 12.9897 11.5977 11.5835 12.623 10.895C13.6484 10.1919 14.6372 9.84033 15.5894 9.84033C16.4097 9.84033 17.0615 10.0967 17.5449 10.6094C18.043 11.1074 18.292 11.8179 18.292 12.7407C18.292 13.7222 18.0503 14.4839 17.5669 15.0259C17.0981 15.5679 16.5269 15.8389 15.853 15.8389C15.0767 15.8389 14.4028 15.5898 13.8315 15.0918C13.2603 14.5938 12.9233 14.3154 12.8208 14.2568C12.6743 14.1689 12.5059 14.125 12.3154 14.125C11.8906 14.125 11.4878 14.2861 11.1069 14.6084C10.5063 15.1064 10.0522 15.8169 9.74463 16.7397C9.27588 18.1606 9.0415 19.728 9.0415 21.4419V26.166L9.06348 27.3965C9.06348 28.2314 9.11475 28.7661 9.21729 29.0005C9.39307 29.396 9.64941 29.689 9.98633 29.8794C10.3379 30.0552 10.9238 30.165 11.7441 30.209V31H0.647949V30.209C1.5415 30.1357 2.14209 29.894 2.44971 29.4839C2.77197 29.0591 2.93311 27.9531 2.93311 26.166V14.8062C2.93311 13.6343 2.87451 12.8872 2.75732 12.5649C2.61084 12.1548 2.39844 11.8545 2.12012 11.6641C1.8418 11.4736 1.35107 11.3418 0.647949 11.2686V10.4556H9.0415ZM37.0786 19.9917H25.8066C25.9385 22.7163 26.6636 24.8696 27.9819 26.4517C28.9927 27.6675 30.2085 28.2754 31.6294 28.2754C32.5083 28.2754 33.3066 28.0337 34.0244 27.5503C34.7422 27.0522 35.5112 26.166 36.3315 24.8916L37.0786 25.375C35.9653 27.6455 34.7349 29.2568 33.3872 30.209C32.0396 31.1465 30.4795 31.6152 28.707 31.6152C25.6602 31.6152 23.353 30.4434 21.7856 28.0996C20.5259 26.21 19.896 23.8662 19.896 21.0684C19.896 17.6406 20.8188 14.916 22.6646 12.8945C24.5249 10.8584 26.7002 9.84033 29.1904 9.84033C31.2705 9.84033 33.0723 10.6973 34.5957 12.4111C36.1338 14.1104 36.9614 16.6372 37.0786 19.9917ZM31.6733 18.5195C31.6733 16.1611 31.5415 14.5425 31.2778 13.6636C31.0288 12.7847 30.6333 12.1182 30.0913 11.6641C29.7837 11.4004 29.3735 11.2686 28.8608 11.2686C28.0991 11.2686 27.4766 11.6421 26.9932 12.3892C26.1289 13.6929 25.6968 15.48 25.6968 17.7505V18.5195H31.6733ZM52.6572 9.88428L52.9868 16.8936H52.2397C51.3462 14.8135 50.416 13.3926 49.4492 12.6309C48.4971 11.8691 47.5449 11.4883 46.5928 11.4883C45.9922 11.4883 45.4795 11.6934 45.0547 12.1035C44.6299 12.499 44.4175 12.9604 44.4175 13.4878C44.4175 13.8833 44.564 14.2642 44.8569 14.6304C45.3257 15.231 46.6367 16.2637 48.79 17.7285C50.9434 19.1787 52.3569 20.4165 53.0308 21.4419C53.7192 22.4526 54.0635 23.5879 54.0635 24.8477C54.0635 25.9902 53.7778 27.1108 53.2065 28.2095C52.6353 29.3081 51.8296 30.1504 50.7896 30.7363C49.7495 31.3223 48.5996 31.6152 47.3398 31.6152C46.3584 31.6152 45.0474 31.3076 43.4067 30.6924C42.9673 30.5312 42.667 30.4507 42.5059 30.4507C42.0225 30.4507 41.6196 30.8169 41.2974 31.5493H40.5723L40.2207 24.1665H40.9678C41.627 26.1001 42.5278 27.5503 43.6704 28.5171C44.8276 29.4839 45.9189 29.9673 46.9443 29.9673C47.6475 29.9673 48.2188 29.7549 48.6582 29.3301C49.1123 28.8906 49.3394 28.3633 49.3394 27.748C49.3394 27.0449 49.1196 26.437 48.6802 25.9243C48.2407 25.4116 47.2593 24.6353 45.7358 23.5952C43.4946 22.0425 42.0444 20.856 41.3853 20.0356C40.4185 18.8345 39.9351 17.5088 39.9351 16.0586C39.9351 14.4766 40.4771 13.0483 41.561 11.7739C42.6597 10.4849 44.2417 9.84033 46.3071 9.84033C47.4204 9.84033 48.4971 10.1113 49.5371 10.6533C49.9326 10.873 50.2549 10.9829 50.5039 10.9829C50.7676 10.9829 50.98 10.9316 51.1411 10.8291C51.3022 10.7119 51.5586 10.397 51.9102 9.88428H52.6572ZM62.1494 0.501953C63.1016 0.501953 63.9072 0.838867 64.5664 1.5127C65.2256 2.17188 65.5552 2.97021 65.5552 3.90771C65.5552 4.84521 65.2183 5.64355 64.5444 6.30273C63.8853 6.96191 63.0869 7.2915 62.1494 7.2915C61.2119 7.2915 60.4136 6.96191 59.7544 6.30273C59.0952 5.64355 58.7656 4.84521 58.7656 3.90771C58.7656 2.97021 59.0952 2.17188 59.7544 1.5127C60.4136 0.838867 61.2119 0.501953 62.1494 0.501953ZM65.2256 10.4556V26.7373C65.2256 28.1875 65.394 29.1177 65.731 29.5278C66.0679 29.9233 66.7271 30.1504 67.7085 30.209V31H56.6123V30.209C57.5205 30.1797 58.1943 29.916 58.6338 29.418C58.9268 29.0811 59.0732 28.1875 59.0732 26.7373V14.7402C59.0732 13.29 58.9048 12.3672 58.5679 11.9717C58.231 11.5615 57.5791 11.3271 56.6123 11.2686V10.4556H65.2256ZM77.772 1.20508V26.7373C77.772 28.1875 77.9404 29.1177 78.2773 29.5278C78.6143 29.9233 79.2734 30.1504 80.2549 30.209V31H69.1587V30.209C70.0669 30.1797 70.7407 29.916 71.1802 29.418C71.4731 29.0811 71.6196 28.1875 71.6196 26.7373V5.46777C71.6196 4.03223 71.4512 3.1167 71.1143 2.72119C70.7773 2.31104 70.1255 2.07666 69.1587 2.01807V1.20508H77.772ZM87.1982 0.501953C88.1504 0.501953 88.9561 0.838867 89.6152 1.5127C90.2744 2.17188 90.604 2.97021 90.604 3.90771C90.604 4.84521 90.2671 5.64355 89.5933 6.30273C88.9341 6.96191 88.1357 7.2915 87.1982 7.2915C86.2607 7.2915 85.4624 6.96191 84.8032 6.30273C84.144 5.64355 83.8145 4.84521 83.8145 3.90771C83.8145 2.97021 84.144 2.17188 84.8032 1.5127C85.4624 0.838867 86.2607 0.501953 87.1982 0.501953ZM90.2744 10.4556V26.7373C90.2744 28.1875 90.4429 29.1177 90.7798 29.5278C91.1167 29.9233 91.7759 30.1504 92.7573 30.209V31H81.6611V30.209C82.5693 30.1797 83.2432 29.916 83.6826 29.418C83.9756 29.0811 84.1221 28.1875 84.1221 26.7373V14.7402C84.1221 13.29 83.9536 12.3672 83.6167 11.9717C83.2798 11.5615 82.6279 11.3271 81.6611 11.2686V10.4556H90.2744ZM112.181 19.9917H100.909C101.041 22.7163 101.766 24.8696 103.084 26.4517C104.095 27.6675 105.311 28.2754 106.732 28.2754C107.611 28.2754 108.409 28.0337 109.127 27.5503C109.845 27.0522 110.614 26.166 111.434 24.8916L112.181 25.375C111.068 27.6455 109.837 29.2568 108.49 30.209C107.142 31.1465 105.582 31.6152 103.81 31.6152C100.763 31.6152 98.4556 30.4434 96.8882 28.0996C95.6284 26.21 94.9985 23.8662 94.9985 21.0684C94.9985 17.6406 95.9214 14.916 97.7671 12.8945C99.6274 10.8584 101.803 9.84033 104.293 9.84033C106.373 9.84033 108.175 10.6973 109.698 12.4111C111.236 14.1104 112.064 16.6372 112.181 19.9917ZM106.776 18.5195C106.776 16.1611 106.644 14.5425 106.38 13.6636C106.131 12.7847 105.736 12.1182 105.194 11.6641C104.886 11.4004 104.476 11.2686 103.963 11.2686C103.202 11.2686 102.579 11.6421 102.096 12.3892C101.231 13.6929 100.799 15.48 100.799 17.7505V18.5195H106.776ZM123.167 10.4556V13.1143C124.222 11.9717 125.233 11.144 126.2 10.6313C127.167 10.104 128.207 9.84033 129.32 9.84033C130.653 9.84033 131.759 10.2139 132.638 10.9609C133.517 11.6934 134.103 12.6089 134.396 13.7075C134.63 14.5425 134.747 16.1465 134.747 18.5195V26.5176C134.747 28.0996 134.886 29.0884 135.165 29.4839C135.458 29.8647 136.058 30.1064 136.966 30.209V31H126.573V30.209C127.35 30.1064 127.906 29.7842 128.243 29.2422C128.478 28.876 128.595 27.9678 128.595 26.5176V17.377C128.595 15.6924 128.529 14.6304 128.397 14.1909C128.265 13.7515 128.038 13.4146 127.716 13.1802C127.408 12.9312 127.064 12.8066 126.683 12.8066C125.423 12.8066 124.251 13.7075 123.167 15.5093V26.5176C123.167 28.0557 123.307 29.0298 123.585 29.4399C123.878 29.8501 124.413 30.1064 125.189 30.209V31H114.796V30.209C115.66 30.1211 116.275 29.8428 116.642 29.374C116.891 29.0518 117.015 28.0996 117.015 26.5176V14.916C117.015 13.3633 116.869 12.3965 116.576 12.0156C116.297 11.6348 115.704 11.3857 114.796 11.2686V10.4556H123.167ZM156.588 25.7046L157.269 26.2319C156.302 28.0483 155.094 29.4033 153.644 30.2969C152.208 31.1758 150.677 31.6152 149.051 31.6152C146.312 31.6152 144.122 30.5825 142.481 28.5171C140.841 26.4517 140.021 23.9688 140.021 21.0684C140.021 18.2705 140.768 15.8096 142.262 13.6855C144.063 11.1221 146.546 9.84033 149.71 9.84033C151.834 9.84033 153.519 10.375 154.764 11.4443C156.024 12.5137 156.654 13.7075 156.654 15.0259C156.654 15.8608 156.397 16.5273 155.885 17.0254C155.387 17.5234 154.728 17.7725 153.907 17.7725C153.043 17.7725 152.325 17.4868 151.754 16.9155C151.197 16.3442 150.853 15.3262 150.721 13.8613C150.633 12.9385 150.421 12.2939 150.084 11.9277C149.747 11.5615 149.352 11.3784 148.897 11.3784C148.194 11.3784 147.594 11.752 147.096 12.499C146.334 13.627 145.953 15.3555 145.953 17.6846C145.953 19.6182 146.261 21.4712 146.876 23.2437C147.491 25.0015 148.333 26.3125 149.403 27.1768C150.208 27.8066 151.161 28.1216 152.259 28.1216C152.977 28.1216 153.658 27.9531 154.303 27.6162C154.947 27.2793 155.709 26.6421 156.588 25.7046ZM177.22 19.9917H165.948C166.08 22.7163 166.805 24.8696 168.124 26.4517C169.134 27.6675 170.35 28.2754 171.771 28.2754C172.65 28.2754 173.448 28.0337 174.166 27.5503C174.884 27.0522 175.653 26.166 176.473 24.8916L177.22 25.375C176.107 27.6455 174.876 29.2568 173.529 30.209C172.181 31.1465 170.621 31.6152 168.849 31.6152C165.802 31.6152 163.495 30.4434 161.927 28.0996C160.667 26.21 160.038 23.8662 160.038 21.0684C160.038 17.6406 160.96 14.916 162.806 12.8945C164.667 10.8584 166.842 9.84033 169.332 9.84033C171.412 9.84033 173.214 10.6973 174.737 12.4111C176.275 14.1104 177.103 16.6372 177.22 19.9917ZM171.815 18.5195C171.815 16.1611 171.683 14.5425 171.419 13.6636C171.17 12.7847 170.775 12.1182 170.233 11.6641C169.925 11.4004 169.515 11.2686 169.002 11.2686C168.241 11.2686 167.618 11.6421 167.135 12.3892C166.271 13.6929 165.838 15.48 165.838 17.7505V18.5195H171.815ZM183.922 24.2324C184.947 24.2324 185.812 24.5913 186.515 25.3091C187.232 26.0269 187.591 26.8911 187.591 27.9019C187.591 28.9126 187.232 29.7769 186.515 30.4946C185.797 31.1978 184.933 31.5493 183.922 31.5493C182.911 31.5493 182.047 31.1978 181.329 30.4946C180.626 29.7769 180.274 28.9126 180.274 27.9019C180.274 26.8911 180.626 26.0269 181.329 25.3091C182.047 24.5913 182.911 24.2324 183.922 24.2324Z" fill="#1F0F60"/>
</svg>
