<svg width="1440" height="1280" viewBox="0 0 1440 1280" fill="none" xmlns="http://www.w3.org/2000/svg">
<rect x="-1" width="1440" height="1280" fill="#FFFFFA"/>
<g clip-path="url(#clip0)">
<g filter="url(#filter0_f)">
<path d="M1704 280.5C1704 438.453 1545.06 566.5 1349 566.5C1152.94 566.5 920 340.953 920 183C920 25.0466 1152.94 -5.5 1349 -5.5C1545.06 -5.5 1704 122.547 1704 280.5Z" fill="#BECFEF"/>
</g>
<g filter="url(#filter1_f)">
<path d="M1654.5 622.5C1654.5 780.453 1319.56 849.5 1123.5 849.5C927.439 849.5 746.5 780.453 746.5 622.5C746.5 464.547 858.439 301 1054.5 301C1250.56 301 1654.5 464.547 1654.5 622.5Z" fill="#D2E6D5"/>
</g>
<g filter="url(#filter2_f)">
<path d="M543.5 245C543.5 402.953 482.561 1020.5 286.5 1020.5C90.4389 1020.5 -37 646.953 -37 489C-37 331.047 37.4389 -94 233.5 -94C429.561 -94 543.5 87.0466 543.5 245Z" fill="#B6DCE4"/>
</g>
<g filter="url(#filter3_f)">
<path d="M1533 1209.82C1533 1498.37 902.847 1378.5 547 1378.5C191.153 1378.5 -115 1498.37 -115 1209.82C-115 921.267 88.1667 622.5 444.013 622.5C799.86 622.5 1533 921.267 1533 1209.82Z" fill="#C4D8FF"/>
</g>
<g filter="url(#filter4_f)">
<path d="M1283 743C1283 900.953 903.061 1120.5 707 1120.5C510.939 1120.5 375 900.953 375 743C375 585.047 486.939 421.5 683 421.5C879.061 421.5 1283 585.047 1283 743Z" fill="#76AEF0"/>
</g>
<g filter="url(#filter5_f)">
<path d="M1294.5 287C1294.5 444.953 883.316 507 714.56 507C545.803 507 295 322.953 295 165C295 7.04655 545.803 -76.5 714.56 -76.5C883.316 -76.5 1294.5 129.047 1294.5 287Z" fill="#6C75C6"/>
</g>
<g filter="url(#filter6_f)">
<path d="M1927 1142.23C1927 1344.02 1599.97 1624.5 1431.22 1624.5C1262.46 1624.5 953 1206.79 953 1005C953 803.208 1181.74 606 1350.5 606C1519.26 606 1927 940.437 1927 1142.23Z" fill="#9093DC"/>
</g>
</g>
<defs>
<filter id="filter0_f" x="420" y="-505.5" width="1784" height="1572" filterUnits="userSpaceOnUse" color-interpolation-filters="sRGB">
<feFlood flood-opacity="0" result="BackgroundImageFix"/>
<feBlend mode="normal" in="SourceGraphic" in2="BackgroundImageFix" result="shape"/>
<feGaussianBlur stdDeviation="250" result="effect1_foregroundBlur"/>
</filter>
<filter id="filter1_f" x="246.5" y="-199" width="1908" height="1548.5" filterUnits="userSpaceOnUse" color-interpolation-filters="sRGB">
<feFlood flood-opacity="0" result="BackgroundImageFix"/>
<feBlend mode="normal" in="SourceGraphic" in2="BackgroundImageFix" result="shape"/>
<feGaussianBlur stdDeviation="250" result="effect1_foregroundBlur"/>
</filter>
<filter id="filter2_f" x="-537" y="-594" width="1580.5" height="2114.5" filterUnits="userSpaceOnUse" color-interpolation-filters="sRGB">
<feFlood flood-opacity="0" result="BackgroundImageFix"/>
<feBlend mode="normal" in="SourceGraphic" in2="BackgroundImageFix" result="shape"/>
<feGaussianBlur stdDeviation="250" result="effect1_foregroundBlur"/>
</filter>
<filter id="filter3_f" x="-615" y="122.5" width="2648" height="1780.68" filterUnits="userSpaceOnUse" color-interpolation-filters="sRGB">
<feFlood flood-opacity="0" result="BackgroundImageFix"/>
<feBlend mode="normal" in="SourceGraphic" in2="BackgroundImageFix" result="shape"/>
<feGaussianBlur stdDeviation="250" result="effect1_foregroundBlur"/>
</filter>
<filter id="filter4_f" x="-125" y="-78.5" width="1908" height="1699" filterUnits="userSpaceOnUse" color-interpolation-filters="sRGB">
<feFlood flood-opacity="0" result="BackgroundImageFix"/>
<feBlend mode="normal" in="SourceGraphic" in2="BackgroundImageFix" result="shape"/>
<feGaussianBlur stdDeviation="250" result="effect1_foregroundBlur"/>
</filter>
<filter id="filter5_f" x="-205" y="-576.5" width="1999.5" height="1583.5" filterUnits="userSpaceOnUse" color-interpolation-filters="sRGB">
<feFlood flood-opacity="0" result="BackgroundImageFix"/>
<feBlend mode="normal" in="SourceGraphic" in2="BackgroundImageFix" result="shape"/>
<feGaussianBlur stdDeviation="250" result="effect1_foregroundBlur"/>
</filter>
<filter id="filter6_f" x="453" y="106" width="1974" height="2018.5" filterUnits="userSpaceOnUse" color-interpolation-filters="sRGB">
<feFlood flood-opacity="0" result="BackgroundImageFix"/>
<feBlend mode="normal" in="SourceGraphic" in2="BackgroundImageFix" result="shape"/>
<feGaussianBlur stdDeviation="250" result="effect1_foregroundBlur"/>
</filter>
<clipPath id="clip0">
<rect width="1622" height="1374" fill="white" transform="translate(-115 -94)"/>
</clipPath>
</defs>
</svg>
